;TYPE=PLATED
;Layer: PTH_Through
;EasyEDA Pro v2.0.34.720dcead.1ebef4, 2023-10-23 10:25:04
;Gerber Generator version 0.3
M48
METRIC,LZ,000.000
;Hole size 1 = 0.800 METRIC
T01C0.800
;Hole size 2 = 0.900 METRIC
T02C0.900
;Hole size 3 = 0.914 METRIC
T03C0.914
;Hole size 4 = 1.400 METRIC
T04C1.400
%
G05
G90
T01
X054916Y013341
X056916Y013341
X058916Y013341
X060916Y013341
X062916Y013341
X064916Y013341
X066916Y013341
X054916Y004007
X056916Y004007
X058916Y004007
X060916Y004007
X062916Y004007
X064916Y004007
X066916Y004007
X021261Y013341
X023261Y013341
X025261Y013341
X027261Y013341
X029261Y013341
X031261Y013341
X033261Y013341
X021261Y003880
X023261Y003880
X025261Y003880
X027261Y003880
X029261Y003880
X031261Y003880
X033261Y003880
T02
X039153Y013341
X041153Y013341
X043153Y013341
X045153Y013341
X047153Y013341
X049153Y013341
X039152Y004007
X041152Y004007
X043152Y004007
X045152Y004007
X047152Y004007
X049152Y004007
X005117Y013341
X007117Y013341
X009117Y013341
X011117Y013341
X013117Y013341
X015117Y013341
X005244Y003880
X007244Y003880
X009244Y003880
X011244Y003880
X013244Y003880
X015244Y003880
T03
X011116Y013214
X009116Y013214
X007116Y013214
X005116Y013214
T04
X059011Y023501
X061551Y023501
X064091Y023501
X034707Y023501
X037247Y023501
X039787Y023501
X042327Y023501
X044867Y023501
X047407Y023501
X049947Y023501
X052487Y023501
X009815Y023501
X012355Y023501
X014895Y023501
X017435Y023501
X019975Y023501
X022515Y023501
X025055Y023501
X027595Y023501
M30