G04 Layer: TopLayer*
G04 EasyEDA Pro v2.0.34.720dcead.1ebef4, 2023-10-23 10:25:04*
G04 Gerber Generator version 0.3*
G04 Scale: 100 percent, Rotated: No, Reflected: No*
G04 Dimensions in millimeters*
G04 Leading zeros omitted, absolute positions, 3 integers and 3 decimals*
%FSLAX33Y33*%
%MOMM*%
%ADD10C,1.524*%
%ADD11R,1.5X1.5*%
%ADD12C,1.5*%
%ADD13R,2.0X2.0*%
%ADD14C,2.0*%
%ADD15R,2.0X2.0*%
%ADD16C,0.5*%
%ADD17C,0.254*%
%ADD18C,1.0*%
G75*


G04 Pad Start*
G54D10*
G01X11116Y13214D03*
G01X9116Y13214D03*
G01X7116Y13214D03*
G01X5116Y13214D03*
G54D11*
G01X39153Y13341D03*
G54D12*
G01X41153Y13341D03*
G01X43153Y13341D03*
G01X45153Y13341D03*
G01X47153Y13341D03*
G01X49153Y13341D03*
G54D11*
G01X39152Y4007D03*
G54D12*
G01X41152Y4007D03*
G01X43152Y4007D03*
G01X45152Y4007D03*
G01X47152Y4007D03*
G01X49152Y4007D03*
G54D11*
G01X5117Y13341D03*
G54D12*
G01X7117Y13341D03*
G01X9117Y13341D03*
G01X11117Y13341D03*
G01X13117Y13341D03*
G01X15117Y13341D03*
G54D11*
G01X5244Y3880D03*
G54D12*
G01X7244Y3880D03*
G01X9244Y3880D03*
G01X11244Y3880D03*
G01X13244Y3880D03*
G01X15244Y3880D03*
G54D13*
G01X59011Y23501D03*
G54D14*
G01X61551Y23501D03*
G01X64091Y23501D03*
G01X34707Y23501D03*
G01X37247Y23501D03*
G01X39787Y23501D03*
G01X42327Y23501D03*
G01X44867Y23501D03*
G01X47407Y23501D03*
G01X49947Y23501D03*
G54D15*
G01X52487Y23501D03*
G54D14*
G01X9815Y23501D03*
G01X12355Y23501D03*
G01X14895Y23501D03*
G01X17435Y23501D03*
G01X19975Y23501D03*
G01X22515Y23501D03*
G01X25055Y23501D03*
G54D15*
G01X27595Y23501D03*
G54D11*
G01X54916Y13341D03*
G54D12*
G01X56916Y13341D03*
G01X58916Y13341D03*
G01X60916Y13341D03*
G01X62916Y13341D03*
G01X64916Y13341D03*
G01X66916Y13341D03*
G54D11*
G01X54916Y4007D03*
G54D12*
G01X56916Y4007D03*
G01X58916Y4007D03*
G01X60916Y4007D03*
G01X62916Y4007D03*
G01X64916Y4007D03*
G01X66916Y4007D03*
G54D11*
G01X21261Y13341D03*
G54D12*
G01X23261Y13341D03*
G01X25261Y13341D03*
G01X27261Y13341D03*
G01X29261Y13341D03*
G01X31261Y13341D03*
G01X33261Y13341D03*
G54D11*
G01X21261Y3880D03*
G54D12*
G01X23261Y3880D03*
G01X25261Y3880D03*
G01X27261Y3880D03*
G01X29261Y3880D03*
G01X31261Y3880D03*
G01X33261Y3880D03*
G04 Pad End*

G04 Track Start*
G54D16*
G01X43279Y4134D02*
G01X43152Y4007D01*
G54D17*
G01X47152Y4007D02*
G01X47279Y4134D01*
G54D16*
G01X45279Y4134D02*
G01X45152Y4007D01*
G01X41279Y4134D02*
G01X41152Y4007D01*
G01X39279Y4134D02*
G01X39152Y4007D01*
G54D17*
G01X15116Y13214D02*
G01X15243Y13087D01*
G01X13116Y13214D02*
G01X13243Y13087D01*
G54D18*
G01X5243Y3880D02*
G01X5116Y4007D01*
G01X62948Y4039D02*
G01X62948Y13722D01*
G54D16*
G01X54916Y13214D02*
G01X54916Y3670D01*
G01X56916Y13214D02*
G01X56916Y3670D01*
G01X58916Y13214D02*
G01X58916Y3670D01*
G54D17*
G01X66916Y13214D02*
G01X66916Y3670D01*
G54D16*
G01X21261Y3543D02*
G01X21261Y13341D01*
G01X23261Y3543D02*
G01X23261Y13341D01*
G01X25261Y3543D02*
G01X25261Y13341D01*
G01X27261Y3543D02*
G01X27261Y13341D01*
G54D17*
G01X31261Y13341D02*
G01X31261Y3543D01*
G01X33261Y13341D02*
G01X33261Y3543D01*
G54D16*
G01X9116Y4007D02*
G01X9116Y13214D01*
G01X11116Y4007D02*
G01X11116Y13214D01*
G01X39279Y13214D02*
G01X39279Y4134D01*
G01X7116Y4007D02*
G01X7116Y13214D01*
G01X41279Y13214D02*
G01X41279Y4134D01*
G01X43279Y13214D02*
G01X43279Y4134D01*
G54D17*
G01X49279Y4134D02*
G01X49279Y13214D01*
G54D16*
G01X45279Y13214D02*
G01X45279Y4134D01*
G54D17*
G01X47279Y4134D02*
G01X47279Y13214D01*
G54D18*
G01X5116Y4007D02*
G01X5116Y13214D01*
G54D16*
G01X9116Y4007D02*
G01X9243Y3880D01*
G01X11116Y4007D02*
G01X11243Y3880D01*
G01X7116Y4007D02*
G01X7243Y3880D01*
G54D17*
G01X49279Y4134D02*
G01X49152Y4007D01*
G01X64916Y4007D02*
G01X64916Y13214D01*
G54D18*
G01X62948Y4039D02*
G01X62916Y4007D01*
G54D16*
G01X60916Y4007D02*
G01X60916Y13214D01*
G54D17*
G01X15244Y3880D02*
G01X15243Y13087D01*
G01X13244Y3880D02*
G01X13243Y13087D01*
G04 Track End*

M02*
