G04 Layer: DrillDrawingLayer*
G04 EasyEDA Pro v2.0.34.720dcead.1ebef4, 2023-10-23 10:25:04*
G04 Gerber Generator version 0.3*
G04 Scale: 100 percent, Rotated: No, Reflected: No*
G04 Dimensions in millimeters*
G04 Leading zeros omitted, absolute positions, 3 integers and 3 decimals*
%FSLAX33Y33*%
%MOMM*%
%ADD10C,0.254*%
G75*


G04 Image Start*
G36*
G01X10916Y13414D02*
G01X10916Y13378D01*
G01X10952D01*
G01X11279D01*
G01Y13051D01*
G01X10952D01*
G01Y13378D01*
G01X10916D01*
G01Y13015D01*
G01X11315D01*
G01Y13414D01*
G37*
G36*
G01X8916Y13414D02*
G01X8916Y13378D01*
G01X8952D01*
G01X9279D01*
G01Y13051D01*
G01X8952D01*
G01Y13378D01*
G01X8916D01*
G01Y13015D01*
G01X9315D01*
G01Y13414D01*
G37*
G36*
G01X6916Y13414D02*
G01X6916Y13378D01*
G01X6952D01*
G01X7279D01*
G01Y13051D01*
G01X6952D01*
G01Y13378D01*
G01X6916D01*
G01Y13015D01*
G01X7315D01*
G01Y13414D01*
G37*
G36*
G01X4916Y13414D02*
G01X4916Y13378D01*
G01X4952D01*
G01X5279D01*
G01Y13051D01*
G01X4952D01*
G01Y13378D01*
G01X4916D01*
G01Y13015D01*
G01X5315D01*
G01Y13414D01*
G37*
G36*
G01X59011Y23701D02*
G01X58990Y23700D01*
G01X58970Y23697D01*
G01X58951Y23692D01*
G01X58933Y23685D01*
G01X58915Y23677D01*
G01X58899Y23667D01*
G01X58884Y23655D01*
G01X58870Y23642D01*
G01X58857Y23628D01*
G01X58845Y23613D01*
G01X58835Y23597D01*
G01X58827Y23579D01*
G01X58820Y23561D01*
G01X58815Y23542D01*
G01X58812Y23522D01*
G01X58811Y23502D01*
G01X58844D01*
G01X58845Y23518D01*
G01X58848Y23535D01*
G01X58852Y23551D01*
G01X58857Y23566D01*
G01X58865Y23580D01*
G01X58873Y23594D01*
G01X58882Y23607D01*
G01X58893Y23619D01*
G01X58905Y23630D01*
G01X58918Y23639D01*
G01X58932Y23647D01*
G01X58946Y23655D01*
G01X58961Y23660D01*
G01X58977Y23664D01*
G01X58994Y23667D01*
G01X59011Y23668D01*
G01X59028Y23667D01*
G01X59044Y23664D01*
G01X59060Y23660D01*
G01X59075Y23655D01*
G01X59090Y23647D01*
G01X59103Y23639D01*
G01X59116Y23630D01*
G01X59128Y23619D01*
G01X59139Y23607D01*
G01X59148Y23594D01*
G01X59157Y23580D01*
G01X59164Y23566D01*
G01X59169Y23551D01*
G01X59173Y23535D01*
G01X59176Y23518D01*
G01X59177Y23502D01*
G01X59176Y23484D01*
G01X59173Y23468D01*
G01X59169Y23452D01*
G01X59164Y23437D01*
G01X59157Y23422D01*
G01X59148Y23409D01*
G01X59139Y23396D01*
G01X59128Y23384D01*
G01X59116Y23373D01*
G01X59103Y23363D01*
G01X59090Y23355D01*
G01X59075Y23348D01*
G01X59060Y23343D01*
G01X59044Y23339D01*
G01X59028Y23336D01*
G01X59011Y23335D01*
G01X58994Y23336D01*
G01X58977Y23339D01*
G01X58961Y23343D01*
G01X58946Y23348D01*
G01X58932Y23355D01*
G01X58918Y23363D01*
G01X58905Y23373D01*
G01X58893Y23384D01*
G01X58882Y23396D01*
G01X58873Y23409D01*
G01X58865Y23422D01*
G01X58857Y23437D01*
G01X58852Y23452D01*
G01X58848Y23468D01*
G01X58845Y23484D01*
G01X58844Y23502D01*
G01X58811D01*
G01X58812Y23481D01*
G01X58815Y23461D01*
G01X58820Y23442D01*
G01X58827Y23424D01*
G01X58835Y23406D01*
G01X58845Y23390D01*
G01X58857Y23375D01*
G01X58870Y23360D01*
G01X58884Y23348D01*
G01X58899Y23336D01*
G01X58915Y23326D01*
G01X58933Y23318D01*
G01X58951Y23311D01*
G01X58970Y23306D01*
G01X58990Y23303D01*
G01X59011Y23302D01*
G01X59031Y23303D01*
G01X59051Y23306D01*
G01X59070Y23311D01*
G01X59088Y23318D01*
G01X59106Y23326D01*
G01X59122Y23336D01*
G01X59137Y23348D01*
G01X59152Y23360D01*
G01X59164Y23375D01*
G01X59176Y23390D01*
G01X59186Y23406D01*
G01X59194Y23424D01*
G01X59201Y23442D01*
G01X59206Y23461D01*
G01X59209Y23481D01*
G01X59210Y23502D01*
G01X59209Y23522D01*
G01X59206Y23542D01*
G01X59201Y23561D01*
G01X59194Y23579D01*
G01X59186Y23597D01*
G01X59176Y23613D01*
G01X59164Y23628D01*
G01X59152Y23642D01*
G01X59137Y23655D01*
G01X59122Y23667D01*
G01X59106Y23677D01*
G01X59088Y23685D01*
G01X59070Y23692D01*
G01X59051Y23697D01*
G01X59031Y23700D01*
G37*
G36*
G01X61551Y23701D02*
G01X61530Y23700D01*
G01X61510Y23697D01*
G01X61491Y23692D01*
G01X61473Y23685D01*
G01X61455Y23677D01*
G01X61439Y23667D01*
G01X61424Y23655D01*
G01X61410Y23642D01*
G01X61397Y23628D01*
G01X61385Y23613D01*
G01X61375Y23597D01*
G01X61367Y23579D01*
G01X61360Y23561D01*
G01X61355Y23542D01*
G01X61352Y23522D01*
G01X61351Y23502D01*
G01X61384D01*
G01X61385Y23518D01*
G01X61388Y23535D01*
G01X61392Y23551D01*
G01X61397Y23566D01*
G01X61405Y23580D01*
G01X61413Y23594D01*
G01X61422Y23607D01*
G01X61433Y23619D01*
G01X61445Y23630D01*
G01X61458Y23639D01*
G01X61472Y23647D01*
G01X61486Y23655D01*
G01X61501Y23660D01*
G01X61517Y23664D01*
G01X61534Y23667D01*
G01X61551Y23668D01*
G01X61568Y23667D01*
G01X61584Y23664D01*
G01X61600Y23660D01*
G01X61615Y23655D01*
G01X61630Y23647D01*
G01X61643Y23639D01*
G01X61656Y23630D01*
G01X61668Y23619D01*
G01X61679Y23607D01*
G01X61688Y23594D01*
G01X61697Y23580D01*
G01X61704Y23566D01*
G01X61709Y23551D01*
G01X61713Y23535D01*
G01X61716Y23518D01*
G01X61717Y23502D01*
G01X61716Y23484D01*
G01X61713Y23468D01*
G01X61709Y23452D01*
G01X61704Y23437D01*
G01X61697Y23422D01*
G01X61688Y23409D01*
G01X61679Y23396D01*
G01X61668Y23384D01*
G01X61656Y23373D01*
G01X61643Y23363D01*
G01X61630Y23355D01*
G01X61615Y23348D01*
G01X61600Y23343D01*
G01X61584Y23339D01*
G01X61568Y23336D01*
G01X61551Y23335D01*
G01X61534Y23336D01*
G01X61517Y23339D01*
G01X61501Y23343D01*
G01X61486Y23348D01*
G01X61472Y23355D01*
G01X61458Y23363D01*
G01X61445Y23373D01*
G01X61433Y23384D01*
G01X61422Y23396D01*
G01X61413Y23409D01*
G01X61405Y23422D01*
G01X61397Y23437D01*
G01X61392Y23452D01*
G01X61388Y23468D01*
G01X61385Y23484D01*
G01X61384Y23502D01*
G01X61351D01*
G01X61352Y23481D01*
G01X61355Y23461D01*
G01X61360Y23442D01*
G01X61367Y23424D01*
G01X61375Y23406D01*
G01X61385Y23390D01*
G01X61397Y23375D01*
G01X61410Y23360D01*
G01X61424Y23348D01*
G01X61439Y23336D01*
G01X61455Y23326D01*
G01X61473Y23318D01*
G01X61491Y23311D01*
G01X61510Y23306D01*
G01X61530Y23303D01*
G01X61551Y23302D01*
G01X61571Y23303D01*
G01X61591Y23306D01*
G01X61610Y23311D01*
G01X61628Y23318D01*
G01X61646Y23326D01*
G01X61662Y23336D01*
G01X61677Y23348D01*
G01X61692Y23360D01*
G01X61704Y23375D01*
G01X61716Y23390D01*
G01X61726Y23406D01*
G01X61734Y23424D01*
G01X61741Y23442D01*
G01X61746Y23461D01*
G01X61749Y23481D01*
G01X61750Y23502D01*
G01X61749Y23522D01*
G01X61746Y23542D01*
G01X61741Y23561D01*
G01X61734Y23579D01*
G01X61726Y23597D01*
G01X61716Y23613D01*
G01X61704Y23628D01*
G01X61692Y23642D01*
G01X61677Y23655D01*
G01X61662Y23667D01*
G01X61646Y23677D01*
G01X61628Y23685D01*
G01X61610Y23692D01*
G01X61591Y23697D01*
G01X61571Y23700D01*
G37*
G36*
G01X64091Y23701D02*
G01X64070Y23700D01*
G01X64050Y23697D01*
G01X64031Y23692D01*
G01X64013Y23685D01*
G01X63995Y23677D01*
G01X63979Y23667D01*
G01X63964Y23655D01*
G01X63950Y23642D01*
G01X63937Y23628D01*
G01X63925Y23613D01*
G01X63915Y23597D01*
G01X63907Y23579D01*
G01X63900Y23561D01*
G01X63895Y23542D01*
G01X63892Y23522D01*
G01X63891Y23502D01*
G01X63924D01*
G01X63925Y23518D01*
G01X63928Y23535D01*
G01X63932Y23551D01*
G01X63937Y23566D01*
G01X63945Y23580D01*
G01X63953Y23594D01*
G01X63962Y23607D01*
G01X63973Y23619D01*
G01X63985Y23630D01*
G01X63998Y23639D01*
G01X64012Y23647D01*
G01X64026Y23655D01*
G01X64041Y23660D01*
G01X64057Y23664D01*
G01X64074Y23667D01*
G01X64091Y23668D01*
G01X64108Y23667D01*
G01X64124Y23664D01*
G01X64140Y23660D01*
G01X64155Y23655D01*
G01X64170Y23647D01*
G01X64183Y23639D01*
G01X64196Y23630D01*
G01X64208Y23619D01*
G01X64219Y23607D01*
G01X64228Y23594D01*
G01X64237Y23580D01*
G01X64244Y23566D01*
G01X64249Y23551D01*
G01X64253Y23535D01*
G01X64256Y23518D01*
G01X64257Y23502D01*
G01X64256Y23484D01*
G01X64253Y23468D01*
G01X64249Y23452D01*
G01X64244Y23437D01*
G01X64237Y23422D01*
G01X64228Y23409D01*
G01X64219Y23396D01*
G01X64208Y23384D01*
G01X64196Y23373D01*
G01X64183Y23363D01*
G01X64170Y23355D01*
G01X64155Y23348D01*
G01X64140Y23343D01*
G01X64124Y23339D01*
G01X64108Y23336D01*
G01X64091Y23335D01*
G01X64074Y23336D01*
G01X64057Y23339D01*
G01X64041Y23343D01*
G01X64026Y23348D01*
G01X64012Y23355D01*
G01X63998Y23363D01*
G01X63985Y23373D01*
G01X63973Y23384D01*
G01X63962Y23396D01*
G01X63953Y23409D01*
G01X63945Y23422D01*
G01X63937Y23437D01*
G01X63932Y23452D01*
G01X63928Y23468D01*
G01X63925Y23484D01*
G01X63924Y23502D01*
G01X63891D01*
G01X63892Y23481D01*
G01X63895Y23461D01*
G01X63900Y23442D01*
G01X63907Y23424D01*
G01X63915Y23406D01*
G01X63925Y23390D01*
G01X63937Y23375D01*
G01X63950Y23360D01*
G01X63964Y23348D01*
G01X63979Y23336D01*
G01X63995Y23326D01*
G01X64013Y23318D01*
G01X64031Y23311D01*
G01X64050Y23306D01*
G01X64070Y23303D01*
G01X64091Y23302D01*
G01X64111Y23303D01*
G01X64131Y23306D01*
G01X64150Y23311D01*
G01X64168Y23318D01*
G01X64186Y23326D01*
G01X64202Y23336D01*
G01X64217Y23348D01*
G01X64232Y23360D01*
G01X64244Y23375D01*
G01X64256Y23390D01*
G01X64266Y23406D01*
G01X64274Y23424D01*
G01X64281Y23442D01*
G01X64286Y23461D01*
G01X64289Y23481D01*
G01X64290Y23502D01*
G01X64289Y23522D01*
G01X64286Y23542D01*
G01X64281Y23561D01*
G01X64274Y23579D01*
G01X64266Y23597D01*
G01X64256Y23613D01*
G01X64244Y23628D01*
G01X64232Y23642D01*
G01X64217Y23655D01*
G01X64202Y23667D01*
G01X64186Y23677D01*
G01X64168Y23685D01*
G01X64150Y23692D01*
G01X64131Y23697D01*
G01X64111Y23700D01*
G37*
G36*
G01X34707Y23701D02*
G01X34686Y23700D01*
G01X34666Y23697D01*
G01X34647Y23692D01*
G01X34629Y23685D01*
G01X34612Y23677D01*
G01X34595Y23667D01*
G01X34580Y23656D01*
G01X34565Y23642D01*
G01X34553Y23628D01*
G01X34541Y23613D01*
G01X34531Y23597D01*
G01X34523Y23579D01*
G01X34516Y23561D01*
G01X34511Y23542D01*
G01X34508Y23522D01*
G01X34507Y23502D01*
G01X34540D01*
G01X34541Y23518D01*
G01X34544Y23535D01*
G01X34548Y23551D01*
G01X34554Y23566D01*
G01X34560Y23580D01*
G01X34569Y23594D01*
G01X34579Y23607D01*
G01X34589Y23619D01*
G01X34601Y23630D01*
G01X34614Y23639D01*
G01X34627Y23647D01*
G01X34642Y23655D01*
G01X34657Y23660D01*
G01X34673Y23664D01*
G01X34690Y23667D01*
G01X34707Y23668D01*
G01X34723Y23667D01*
G01X34740Y23664D01*
G01X34756Y23660D01*
G01X34771Y23655D01*
G01X34786Y23647D01*
G01X34800Y23639D01*
G01X34812Y23630D01*
G01X34824Y23619D01*
G01X34835Y23607D01*
G01X34844Y23594D01*
G01X34853Y23580D01*
G01X34859Y23566D01*
G01X34865Y23551D01*
G01X34869Y23535D01*
G01X34872Y23518D01*
G01X34873Y23502D01*
G01X34872Y23484D01*
G01X34869Y23468D01*
G01X34865Y23452D01*
G01X34859Y23437D01*
G01X34853Y23422D01*
G01X34844Y23409D01*
G01X34835Y23396D01*
G01X34824Y23384D01*
G01X34812Y23373D01*
G01X34800Y23364D01*
G01X34786Y23355D01*
G01X34771Y23348D01*
G01X34756Y23343D01*
G01X34740Y23339D01*
G01X34723Y23336D01*
G01X34707Y23335D01*
G01X34690Y23336D01*
G01X34673Y23339D01*
G01X34657Y23343D01*
G01X34642Y23348D01*
G01X34627Y23355D01*
G01X34614Y23364D01*
G01X34601Y23373D01*
G01X34589Y23384D01*
G01X34579Y23396D01*
G01X34569Y23409D01*
G01X34560Y23422D01*
G01X34554Y23437D01*
G01X34548Y23452D01*
G01X34544Y23468D01*
G01X34541Y23484D01*
G01X34540Y23502D01*
G01X34507D01*
G01X34508Y23481D01*
G01X34511Y23461D01*
G01X34516Y23442D01*
G01X34523Y23424D01*
G01X34531Y23407D01*
G01X34541Y23390D01*
G01X34553Y23375D01*
G01X34565Y23360D01*
G01X34580Y23348D01*
G01X34595Y23336D01*
G01X34612Y23326D01*
G01X34629Y23318D01*
G01X34647Y23311D01*
G01X34666Y23306D01*
G01X34686Y23303D01*
G01X34707Y23302D01*
G01X34727Y23303D01*
G01X34747Y23306D01*
G01X34766Y23311D01*
G01X34784Y23318D01*
G01X34802Y23326D01*
G01X34818Y23336D01*
G01X34834Y23348D01*
G01X34848Y23360D01*
G01X34860Y23375D01*
G01X34872Y23390D01*
G01X34882Y23407D01*
G01X34890Y23424D01*
G01X34897Y23442D01*
G01X34902Y23461D01*
G01X34905Y23481D01*
G01X34906Y23502D01*
G01X34905Y23522D01*
G01X34902Y23542D01*
G01X34897Y23561D01*
G01X34890Y23579D01*
G01X34882Y23597D01*
G01X34872Y23613D01*
G01X34860Y23628D01*
G01X34848Y23642D01*
G01X34834Y23656D01*
G01X34818Y23667D01*
G01X34802Y23677D01*
G01X34784Y23685D01*
G01X34766Y23692D01*
G01X34747Y23697D01*
G01X34727Y23700D01*
G37*
G36*
G01X37247Y23701D02*
G01X37226Y23700D01*
G01X37206Y23697D01*
G01X37187Y23692D01*
G01X37169Y23685D01*
G01X37152Y23677D01*
G01X37135Y23667D01*
G01X37120Y23656D01*
G01X37105Y23642D01*
G01X37093Y23628D01*
G01X37081Y23613D01*
G01X37071Y23597D01*
G01X37063Y23579D01*
G01X37056Y23561D01*
G01X37051Y23542D01*
G01X37048Y23522D01*
G01X37047Y23502D01*
G01X37080D01*
G01X37081Y23518D01*
G01X37084Y23535D01*
G01X37088Y23551D01*
G01X37094Y23566D01*
G01X37100Y23580D01*
G01X37109Y23594D01*
G01X37119Y23607D01*
G01X37129Y23619D01*
G01X37141Y23630D01*
G01X37154Y23639D01*
G01X37167Y23647D01*
G01X37182Y23655D01*
G01X37197Y23660D01*
G01X37213Y23664D01*
G01X37230Y23667D01*
G01X37247Y23668D01*
G01X37263Y23667D01*
G01X37280Y23664D01*
G01X37296Y23660D01*
G01X37311Y23655D01*
G01X37326Y23647D01*
G01X37340Y23639D01*
G01X37352Y23630D01*
G01X37364Y23619D01*
G01X37375Y23607D01*
G01X37384Y23594D01*
G01X37393Y23580D01*
G01X37399Y23566D01*
G01X37405Y23551D01*
G01X37409Y23535D01*
G01X37412Y23518D01*
G01X37413Y23502D01*
G01X37412Y23484D01*
G01X37409Y23468D01*
G01X37405Y23452D01*
G01X37399Y23437D01*
G01X37393Y23422D01*
G01X37384Y23409D01*
G01X37375Y23396D01*
G01X37364Y23384D01*
G01X37352Y23373D01*
G01X37340Y23364D01*
G01X37326Y23355D01*
G01X37311Y23348D01*
G01X37296Y23343D01*
G01X37280Y23339D01*
G01X37263Y23336D01*
G01X37247Y23335D01*
G01X37230Y23336D01*
G01X37213Y23339D01*
G01X37197Y23343D01*
G01X37182Y23348D01*
G01X37167Y23355D01*
G01X37154Y23364D01*
G01X37141Y23373D01*
G01X37129Y23384D01*
G01X37119Y23396D01*
G01X37109Y23409D01*
G01X37100Y23422D01*
G01X37094Y23437D01*
G01X37088Y23452D01*
G01X37084Y23468D01*
G01X37081Y23484D01*
G01X37080Y23502D01*
G01X37047D01*
G01X37048Y23481D01*
G01X37051Y23461D01*
G01X37056Y23442D01*
G01X37063Y23424D01*
G01X37071Y23407D01*
G01X37081Y23390D01*
G01X37093Y23375D01*
G01X37105Y23360D01*
G01X37120Y23348D01*
G01X37135Y23336D01*
G01X37152Y23326D01*
G01X37169Y23318D01*
G01X37187Y23311D01*
G01X37206Y23306D01*
G01X37226Y23303D01*
G01X37247Y23302D01*
G01X37267Y23303D01*
G01X37287Y23306D01*
G01X37306Y23311D01*
G01X37324Y23318D01*
G01X37342Y23326D01*
G01X37358Y23336D01*
G01X37374Y23348D01*
G01X37388Y23360D01*
G01X37400Y23375D01*
G01X37412Y23390D01*
G01X37422Y23407D01*
G01X37430Y23424D01*
G01X37437Y23442D01*
G01X37442Y23461D01*
G01X37445Y23481D01*
G01X37446Y23502D01*
G01X37445Y23522D01*
G01X37442Y23542D01*
G01X37437Y23561D01*
G01X37430Y23579D01*
G01X37422Y23597D01*
G01X37412Y23613D01*
G01X37400Y23628D01*
G01X37388Y23642D01*
G01X37374Y23656D01*
G01X37358Y23667D01*
G01X37342Y23677D01*
G01X37324Y23685D01*
G01X37306Y23692D01*
G01X37287Y23697D01*
G01X37267Y23700D01*
G37*
G36*
G01X39787Y23701D02*
G01X39766Y23700D01*
G01X39746Y23697D01*
G01X39727Y23692D01*
G01X39709Y23685D01*
G01X39692Y23677D01*
G01X39675Y23667D01*
G01X39660Y23656D01*
G01X39645Y23642D01*
G01X39633Y23628D01*
G01X39621Y23613D01*
G01X39611Y23597D01*
G01X39603Y23579D01*
G01X39596Y23561D01*
G01X39591Y23542D01*
G01X39588Y23522D01*
G01X39587Y23502D01*
G01X39620D01*
G01X39621Y23518D01*
G01X39624Y23535D01*
G01X39628Y23551D01*
G01X39634Y23566D01*
G01X39640Y23580D01*
G01X39649Y23594D01*
G01X39659Y23607D01*
G01X39669Y23619D01*
G01X39681Y23630D01*
G01X39694Y23639D01*
G01X39707Y23647D01*
G01X39722Y23655D01*
G01X39737Y23660D01*
G01X39753Y23664D01*
G01X39770Y23667D01*
G01X39787Y23668D01*
G01X39803Y23667D01*
G01X39820Y23664D01*
G01X39836Y23660D01*
G01X39851Y23655D01*
G01X39866Y23647D01*
G01X39880Y23639D01*
G01X39892Y23630D01*
G01X39904Y23619D01*
G01X39915Y23607D01*
G01X39924Y23594D01*
G01X39933Y23580D01*
G01X39939Y23566D01*
G01X39945Y23551D01*
G01X39949Y23535D01*
G01X39952Y23518D01*
G01X39953Y23502D01*
G01X39952Y23484D01*
G01X39949Y23468D01*
G01X39945Y23452D01*
G01X39939Y23437D01*
G01X39933Y23422D01*
G01X39924Y23409D01*
G01X39915Y23396D01*
G01X39904Y23384D01*
G01X39892Y23373D01*
G01X39880Y23364D01*
G01X39866Y23355D01*
G01X39851Y23348D01*
G01X39836Y23343D01*
G01X39820Y23339D01*
G01X39803Y23336D01*
G01X39787Y23335D01*
G01X39770Y23336D01*
G01X39753Y23339D01*
G01X39737Y23343D01*
G01X39722Y23348D01*
G01X39707Y23355D01*
G01X39694Y23364D01*
G01X39681Y23373D01*
G01X39669Y23384D01*
G01X39659Y23396D01*
G01X39649Y23409D01*
G01X39640Y23422D01*
G01X39634Y23437D01*
G01X39628Y23452D01*
G01X39624Y23468D01*
G01X39621Y23484D01*
G01X39620Y23502D01*
G01X39587D01*
G01X39588Y23481D01*
G01X39591Y23461D01*
G01X39596Y23442D01*
G01X39603Y23424D01*
G01X39611Y23407D01*
G01X39621Y23390D01*
G01X39633Y23375D01*
G01X39645Y23360D01*
G01X39660Y23348D01*
G01X39675Y23336D01*
G01X39692Y23326D01*
G01X39709Y23318D01*
G01X39727Y23311D01*
G01X39746Y23306D01*
G01X39766Y23303D01*
G01X39787Y23302D01*
G01X39807Y23303D01*
G01X39827Y23306D01*
G01X39846Y23311D01*
G01X39864Y23318D01*
G01X39882Y23326D01*
G01X39898Y23336D01*
G01X39914Y23348D01*
G01X39928Y23360D01*
G01X39940Y23375D01*
G01X39952Y23390D01*
G01X39962Y23407D01*
G01X39970Y23424D01*
G01X39977Y23442D01*
G01X39982Y23461D01*
G01X39985Y23481D01*
G01X39986Y23502D01*
G01X39985Y23522D01*
G01X39982Y23542D01*
G01X39977Y23561D01*
G01X39970Y23579D01*
G01X39962Y23597D01*
G01X39952Y23613D01*
G01X39940Y23628D01*
G01X39928Y23642D01*
G01X39914Y23656D01*
G01X39898Y23667D01*
G01X39882Y23677D01*
G01X39864Y23685D01*
G01X39846Y23692D01*
G01X39827Y23697D01*
G01X39807Y23700D01*
G37*
G36*
G01X42327Y23701D02*
G01X42306Y23700D01*
G01X42286Y23697D01*
G01X42267Y23692D01*
G01X42249Y23685D01*
G01X42232Y23677D01*
G01X42215Y23667D01*
G01X42200Y23656D01*
G01X42185Y23642D01*
G01X42173Y23628D01*
G01X42161Y23613D01*
G01X42151Y23597D01*
G01X42143Y23579D01*
G01X42136Y23561D01*
G01X42131Y23542D01*
G01X42128Y23522D01*
G01X42127Y23502D01*
G01X42160D01*
G01X42161Y23518D01*
G01X42164Y23535D01*
G01X42168Y23551D01*
G01X42174Y23566D01*
G01X42180Y23580D01*
G01X42189Y23594D01*
G01X42199Y23607D01*
G01X42209Y23619D01*
G01X42221Y23630D01*
G01X42234Y23639D01*
G01X42247Y23647D01*
G01X42262Y23655D01*
G01X42277Y23660D01*
G01X42293Y23664D01*
G01X42310Y23667D01*
G01X42327Y23668D01*
G01X42343Y23667D01*
G01X42360Y23664D01*
G01X42376Y23660D01*
G01X42391Y23655D01*
G01X42406Y23647D01*
G01X42420Y23639D01*
G01X42432Y23630D01*
G01X42444Y23619D01*
G01X42455Y23607D01*
G01X42464Y23594D01*
G01X42473Y23580D01*
G01X42479Y23566D01*
G01X42485Y23551D01*
G01X42489Y23535D01*
G01X42492Y23518D01*
G01X42493Y23502D01*
G01X42492Y23484D01*
G01X42489Y23468D01*
G01X42485Y23452D01*
G01X42479Y23437D01*
G01X42473Y23422D01*
G01X42464Y23409D01*
G01X42455Y23396D01*
G01X42444Y23384D01*
G01X42432Y23373D01*
G01X42420Y23364D01*
G01X42406Y23355D01*
G01X42391Y23348D01*
G01X42376Y23343D01*
G01X42360Y23339D01*
G01X42343Y23336D01*
G01X42327Y23335D01*
G01X42310Y23336D01*
G01X42293Y23339D01*
G01X42277Y23343D01*
G01X42262Y23348D01*
G01X42247Y23355D01*
G01X42234Y23364D01*
G01X42221Y23373D01*
G01X42209Y23384D01*
G01X42199Y23396D01*
G01X42189Y23409D01*
G01X42180Y23422D01*
G01X42174Y23437D01*
G01X42168Y23452D01*
G01X42164Y23468D01*
G01X42161Y23484D01*
G01X42160Y23502D01*
G01X42127D01*
G01X42128Y23481D01*
G01X42131Y23461D01*
G01X42136Y23442D01*
G01X42143Y23424D01*
G01X42151Y23407D01*
G01X42161Y23390D01*
G01X42173Y23375D01*
G01X42185Y23360D01*
G01X42200Y23348D01*
G01X42215Y23336D01*
G01X42232Y23326D01*
G01X42249Y23318D01*
G01X42267Y23311D01*
G01X42286Y23306D01*
G01X42306Y23303D01*
G01X42327Y23302D01*
G01X42347Y23303D01*
G01X42367Y23306D01*
G01X42386Y23311D01*
G01X42404Y23318D01*
G01X42422Y23326D01*
G01X42438Y23336D01*
G01X42454Y23348D01*
G01X42468Y23360D01*
G01X42480Y23375D01*
G01X42492Y23390D01*
G01X42502Y23407D01*
G01X42510Y23424D01*
G01X42517Y23442D01*
G01X42522Y23461D01*
G01X42525Y23481D01*
G01X42526Y23502D01*
G01X42525Y23522D01*
G01X42522Y23542D01*
G01X42517Y23561D01*
G01X42510Y23579D01*
G01X42502Y23597D01*
G01X42492Y23613D01*
G01X42480Y23628D01*
G01X42468Y23642D01*
G01X42454Y23656D01*
G01X42438Y23667D01*
G01X42422Y23677D01*
G01X42404Y23685D01*
G01X42386Y23692D01*
G01X42367Y23697D01*
G01X42347Y23700D01*
G37*
G36*
G01X44867Y23701D02*
G01X44846Y23700D01*
G01X44826Y23697D01*
G01X44807Y23692D01*
G01X44789Y23685D01*
G01X44772Y23677D01*
G01X44755Y23667D01*
G01X44740Y23656D01*
G01X44725Y23642D01*
G01X44713Y23628D01*
G01X44701Y23613D01*
G01X44691Y23597D01*
G01X44683Y23579D01*
G01X44676Y23561D01*
G01X44671Y23542D01*
G01X44668Y23522D01*
G01X44667Y23502D01*
G01X44700D01*
G01X44701Y23518D01*
G01X44704Y23535D01*
G01X44708Y23551D01*
G01X44714Y23566D01*
G01X44720Y23580D01*
G01X44729Y23594D01*
G01X44739Y23607D01*
G01X44749Y23619D01*
G01X44761Y23630D01*
G01X44774Y23639D01*
G01X44787Y23647D01*
G01X44802Y23655D01*
G01X44817Y23660D01*
G01X44833Y23664D01*
G01X44850Y23667D01*
G01X44867Y23668D01*
G01X44883Y23667D01*
G01X44900Y23664D01*
G01X44916Y23660D01*
G01X44931Y23655D01*
G01X44946Y23647D01*
G01X44960Y23639D01*
G01X44972Y23630D01*
G01X44984Y23619D01*
G01X44995Y23607D01*
G01X45004Y23594D01*
G01X45013Y23580D01*
G01X45019Y23566D01*
G01X45025Y23551D01*
G01X45029Y23535D01*
G01X45032Y23518D01*
G01X45033Y23502D01*
G01X45032Y23484D01*
G01X45029Y23468D01*
G01X45025Y23452D01*
G01X45019Y23437D01*
G01X45013Y23422D01*
G01X45004Y23409D01*
G01X44995Y23396D01*
G01X44984Y23384D01*
G01X44972Y23373D01*
G01X44960Y23364D01*
G01X44946Y23355D01*
G01X44931Y23348D01*
G01X44916Y23343D01*
G01X44900Y23339D01*
G01X44883Y23336D01*
G01X44867Y23335D01*
G01X44850Y23336D01*
G01X44833Y23339D01*
G01X44817Y23343D01*
G01X44802Y23348D01*
G01X44787Y23355D01*
G01X44774Y23364D01*
G01X44761Y23373D01*
G01X44749Y23384D01*
G01X44739Y23396D01*
G01X44729Y23409D01*
G01X44720Y23422D01*
G01X44714Y23437D01*
G01X44708Y23452D01*
G01X44704Y23468D01*
G01X44701Y23484D01*
G01X44700Y23502D01*
G01X44667D01*
G01X44668Y23481D01*
G01X44671Y23461D01*
G01X44676Y23442D01*
G01X44683Y23424D01*
G01X44691Y23407D01*
G01X44701Y23390D01*
G01X44713Y23375D01*
G01X44725Y23360D01*
G01X44740Y23348D01*
G01X44755Y23336D01*
G01X44772Y23326D01*
G01X44789Y23318D01*
G01X44807Y23311D01*
G01X44826Y23306D01*
G01X44846Y23303D01*
G01X44867Y23302D01*
G01X44887Y23303D01*
G01X44907Y23306D01*
G01X44926Y23311D01*
G01X44944Y23318D01*
G01X44962Y23326D01*
G01X44978Y23336D01*
G01X44994Y23348D01*
G01X45008Y23360D01*
G01X45020Y23375D01*
G01X45032Y23390D01*
G01X45042Y23407D01*
G01X45050Y23424D01*
G01X45057Y23442D01*
G01X45062Y23461D01*
G01X45065Y23481D01*
G01X45066Y23502D01*
G01X45065Y23522D01*
G01X45062Y23542D01*
G01X45057Y23561D01*
G01X45050Y23579D01*
G01X45042Y23597D01*
G01X45032Y23613D01*
G01X45020Y23628D01*
G01X45008Y23642D01*
G01X44994Y23656D01*
G01X44978Y23667D01*
G01X44962Y23677D01*
G01X44944Y23685D01*
G01X44926Y23692D01*
G01X44907Y23697D01*
G01X44887Y23700D01*
G37*
G36*
G01X47407Y23701D02*
G01X47386Y23700D01*
G01X47366Y23697D01*
G01X47347Y23692D01*
G01X47329Y23685D01*
G01X47312Y23677D01*
G01X47295Y23667D01*
G01X47280Y23656D01*
G01X47265Y23642D01*
G01X47253Y23628D01*
G01X47241Y23613D01*
G01X47231Y23597D01*
G01X47223Y23579D01*
G01X47216Y23561D01*
G01X47211Y23542D01*
G01X47208Y23522D01*
G01X47207Y23502D01*
G01X47240D01*
G01X47241Y23518D01*
G01X47244Y23535D01*
G01X47248Y23551D01*
G01X47254Y23566D01*
G01X47260Y23580D01*
G01X47269Y23594D01*
G01X47279Y23607D01*
G01X47289Y23619D01*
G01X47301Y23630D01*
G01X47314Y23639D01*
G01X47327Y23647D01*
G01X47342Y23655D01*
G01X47357Y23660D01*
G01X47373Y23664D01*
G01X47390Y23667D01*
G01X47407Y23668D01*
G01X47423Y23667D01*
G01X47440Y23664D01*
G01X47456Y23660D01*
G01X47471Y23655D01*
G01X47486Y23647D01*
G01X47500Y23639D01*
G01X47512Y23630D01*
G01X47524Y23619D01*
G01X47535Y23607D01*
G01X47544Y23594D01*
G01X47553Y23580D01*
G01X47559Y23566D01*
G01X47565Y23551D01*
G01X47569Y23535D01*
G01X47572Y23518D01*
G01X47573Y23502D01*
G01X47572Y23484D01*
G01X47569Y23468D01*
G01X47565Y23452D01*
G01X47559Y23437D01*
G01X47553Y23422D01*
G01X47544Y23409D01*
G01X47535Y23396D01*
G01X47524Y23384D01*
G01X47512Y23373D01*
G01X47500Y23364D01*
G01X47486Y23355D01*
G01X47471Y23348D01*
G01X47456Y23343D01*
G01X47440Y23339D01*
G01X47423Y23336D01*
G01X47407Y23335D01*
G01X47390Y23336D01*
G01X47373Y23339D01*
G01X47357Y23343D01*
G01X47342Y23348D01*
G01X47327Y23355D01*
G01X47314Y23364D01*
G01X47301Y23373D01*
G01X47289Y23384D01*
G01X47279Y23396D01*
G01X47269Y23409D01*
G01X47260Y23422D01*
G01X47254Y23437D01*
G01X47248Y23452D01*
G01X47244Y23468D01*
G01X47241Y23484D01*
G01X47240Y23502D01*
G01X47207D01*
G01X47208Y23481D01*
G01X47211Y23461D01*
G01X47216Y23442D01*
G01X47223Y23424D01*
G01X47231Y23407D01*
G01X47241Y23390D01*
G01X47253Y23375D01*
G01X47265Y23360D01*
G01X47280Y23348D01*
G01X47295Y23336D01*
G01X47312Y23326D01*
G01X47329Y23318D01*
G01X47347Y23311D01*
G01X47366Y23306D01*
G01X47386Y23303D01*
G01X47407Y23302D01*
G01X47427Y23303D01*
G01X47447Y23306D01*
G01X47466Y23311D01*
G01X47484Y23318D01*
G01X47502Y23326D01*
G01X47518Y23336D01*
G01X47534Y23348D01*
G01X47548Y23360D01*
G01X47560Y23375D01*
G01X47572Y23390D01*
G01X47582Y23407D01*
G01X47590Y23424D01*
G01X47597Y23442D01*
G01X47602Y23461D01*
G01X47605Y23481D01*
G01X47606Y23502D01*
G01X47605Y23522D01*
G01X47602Y23542D01*
G01X47597Y23561D01*
G01X47590Y23579D01*
G01X47582Y23597D01*
G01X47572Y23613D01*
G01X47560Y23628D01*
G01X47548Y23642D01*
G01X47534Y23656D01*
G01X47518Y23667D01*
G01X47502Y23677D01*
G01X47484Y23685D01*
G01X47466Y23692D01*
G01X47447Y23697D01*
G01X47427Y23700D01*
G37*
G36*
G01X49947Y23701D02*
G01X49926Y23700D01*
G01X49906Y23697D01*
G01X49887Y23692D01*
G01X49869Y23685D01*
G01X49852Y23677D01*
G01X49835Y23667D01*
G01X49820Y23656D01*
G01X49805Y23642D01*
G01X49793Y23628D01*
G01X49781Y23613D01*
G01X49771Y23597D01*
G01X49763Y23579D01*
G01X49756Y23561D01*
G01X49751Y23542D01*
G01X49748Y23522D01*
G01X49747Y23502D01*
G01X49780D01*
G01X49781Y23518D01*
G01X49784Y23535D01*
G01X49788Y23551D01*
G01X49794Y23566D01*
G01X49800Y23580D01*
G01X49809Y23594D01*
G01X49819Y23607D01*
G01X49829Y23619D01*
G01X49841Y23630D01*
G01X49854Y23639D01*
G01X49867Y23647D01*
G01X49882Y23655D01*
G01X49897Y23660D01*
G01X49913Y23664D01*
G01X49930Y23667D01*
G01X49947Y23668D01*
G01X49963Y23667D01*
G01X49980Y23664D01*
G01X49996Y23660D01*
G01X50011Y23655D01*
G01X50026Y23647D01*
G01X50040Y23639D01*
G01X50052Y23630D01*
G01X50064Y23619D01*
G01X50075Y23607D01*
G01X50084Y23594D01*
G01X50093Y23580D01*
G01X50099Y23566D01*
G01X50105Y23551D01*
G01X50109Y23535D01*
G01X50112Y23518D01*
G01X50113Y23502D01*
G01X50112Y23484D01*
G01X50109Y23468D01*
G01X50105Y23452D01*
G01X50099Y23437D01*
G01X50093Y23422D01*
G01X50084Y23409D01*
G01X50075Y23396D01*
G01X50064Y23384D01*
G01X50052Y23373D01*
G01X50040Y23364D01*
G01X50026Y23355D01*
G01X50011Y23348D01*
G01X49996Y23343D01*
G01X49980Y23339D01*
G01X49963Y23336D01*
G01X49947Y23335D01*
G01X49930Y23336D01*
G01X49913Y23339D01*
G01X49897Y23343D01*
G01X49882Y23348D01*
G01X49867Y23355D01*
G01X49854Y23364D01*
G01X49841Y23373D01*
G01X49829Y23384D01*
G01X49819Y23396D01*
G01X49809Y23409D01*
G01X49800Y23422D01*
G01X49794Y23437D01*
G01X49788Y23452D01*
G01X49784Y23468D01*
G01X49781Y23484D01*
G01X49780Y23502D01*
G01X49747D01*
G01X49748Y23481D01*
G01X49751Y23461D01*
G01X49756Y23442D01*
G01X49763Y23424D01*
G01X49771Y23407D01*
G01X49781Y23390D01*
G01X49793Y23375D01*
G01X49805Y23360D01*
G01X49820Y23348D01*
G01X49835Y23336D01*
G01X49852Y23326D01*
G01X49869Y23318D01*
G01X49887Y23311D01*
G01X49906Y23306D01*
G01X49926Y23303D01*
G01X49947Y23302D01*
G01X49967Y23303D01*
G01X49987Y23306D01*
G01X50006Y23311D01*
G01X50024Y23318D01*
G01X50042Y23326D01*
G01X50058Y23336D01*
G01X50074Y23348D01*
G01X50088Y23360D01*
G01X50100Y23375D01*
G01X50112Y23390D01*
G01X50122Y23407D01*
G01X50130Y23424D01*
G01X50137Y23442D01*
G01X50142Y23461D01*
G01X50145Y23481D01*
G01X50146Y23502D01*
G01X50145Y23522D01*
G01X50142Y23542D01*
G01X50137Y23561D01*
G01X50130Y23579D01*
G01X50122Y23597D01*
G01X50112Y23613D01*
G01X50100Y23628D01*
G01X50088Y23642D01*
G01X50074Y23656D01*
G01X50058Y23667D01*
G01X50042Y23677D01*
G01X50024Y23685D01*
G01X50006Y23692D01*
G01X49987Y23697D01*
G01X49967Y23700D01*
G37*
G36*
G01X52487Y23701D02*
G01X52466Y23700D01*
G01X52446Y23697D01*
G01X52427Y23692D01*
G01X52409Y23685D01*
G01X52392Y23677D01*
G01X52375Y23667D01*
G01X52360Y23656D01*
G01X52345Y23642D01*
G01X52333Y23628D01*
G01X52321Y23613D01*
G01X52311Y23597D01*
G01X52303Y23579D01*
G01X52296Y23561D01*
G01X52291Y23542D01*
G01X52288Y23522D01*
G01X52287Y23502D01*
G01X52320D01*
G01X52321Y23518D01*
G01X52324Y23535D01*
G01X52328Y23551D01*
G01X52334Y23566D01*
G01X52340Y23580D01*
G01X52349Y23594D01*
G01X52359Y23607D01*
G01X52369Y23619D01*
G01X52381Y23630D01*
G01X52394Y23639D01*
G01X52407Y23647D01*
G01X52422Y23655D01*
G01X52437Y23660D01*
G01X52453Y23664D01*
G01X52470Y23667D01*
G01X52487Y23668D01*
G01X52503Y23667D01*
G01X52520Y23664D01*
G01X52536Y23660D01*
G01X52551Y23655D01*
G01X52566Y23647D01*
G01X52580Y23639D01*
G01X52592Y23630D01*
G01X52604Y23619D01*
G01X52615Y23607D01*
G01X52624Y23594D01*
G01X52633Y23580D01*
G01X52639Y23566D01*
G01X52645Y23551D01*
G01X52649Y23535D01*
G01X52652Y23518D01*
G01X52653Y23502D01*
G01X52652Y23484D01*
G01X52649Y23468D01*
G01X52645Y23452D01*
G01X52639Y23437D01*
G01X52633Y23422D01*
G01X52624Y23409D01*
G01X52615Y23396D01*
G01X52604Y23384D01*
G01X52592Y23373D01*
G01X52580Y23364D01*
G01X52566Y23355D01*
G01X52551Y23348D01*
G01X52536Y23343D01*
G01X52520Y23339D01*
G01X52503Y23336D01*
G01X52487Y23335D01*
G01X52470Y23336D01*
G01X52453Y23339D01*
G01X52437Y23343D01*
G01X52422Y23348D01*
G01X52407Y23355D01*
G01X52394Y23364D01*
G01X52381Y23373D01*
G01X52369Y23384D01*
G01X52359Y23396D01*
G01X52349Y23409D01*
G01X52340Y23422D01*
G01X52334Y23437D01*
G01X52328Y23452D01*
G01X52324Y23468D01*
G01X52321Y23484D01*
G01X52320Y23502D01*
G01X52287D01*
G01X52288Y23481D01*
G01X52291Y23461D01*
G01X52296Y23442D01*
G01X52303Y23424D01*
G01X52311Y23407D01*
G01X52321Y23390D01*
G01X52333Y23375D01*
G01X52345Y23360D01*
G01X52360Y23348D01*
G01X52375Y23336D01*
G01X52392Y23326D01*
G01X52409Y23318D01*
G01X52427Y23311D01*
G01X52446Y23306D01*
G01X52466Y23303D01*
G01X52487Y23302D01*
G01X52507Y23303D01*
G01X52527Y23306D01*
G01X52546Y23311D01*
G01X52564Y23318D01*
G01X52582Y23326D01*
G01X52598Y23336D01*
G01X52614Y23348D01*
G01X52628Y23360D01*
G01X52640Y23375D01*
G01X52652Y23390D01*
G01X52662Y23407D01*
G01X52670Y23424D01*
G01X52677Y23442D01*
G01X52682Y23461D01*
G01X52685Y23481D01*
G01X52686Y23502D01*
G01X52685Y23522D01*
G01X52682Y23542D01*
G01X52677Y23561D01*
G01X52670Y23579D01*
G01X52662Y23597D01*
G01X52652Y23613D01*
G01X52640Y23628D01*
G01X52628Y23642D01*
G01X52614Y23656D01*
G01X52598Y23667D01*
G01X52582Y23677D01*
G01X52564Y23685D01*
G01X52546Y23692D01*
G01X52527Y23697D01*
G01X52507Y23700D01*
G37*
G36*
G01X9815Y23701D02*
G01X9794Y23700D01*
G01X9774Y23697D01*
G01X9755Y23692D01*
G01X9737Y23685D01*
G01X9720Y23677D01*
G01X9703Y23667D01*
G01X9688Y23656D01*
G01X9673Y23642D01*
G01X9661Y23628D01*
G01X9649Y23613D01*
G01X9639Y23597D01*
G01X9631Y23579D01*
G01X9624Y23561D01*
G01X9619Y23542D01*
G01X9616Y23522D01*
G01X9615Y23502D01*
G01X9648D01*
G01X9649Y23518D01*
G01X9652Y23535D01*
G01X9656Y23551D01*
G01X9662Y23566D01*
G01X9668Y23580D01*
G01X9677Y23594D01*
G01X9687Y23607D01*
G01X9697Y23619D01*
G01X9709Y23630D01*
G01X9722Y23639D01*
G01X9735Y23647D01*
G01X9750Y23655D01*
G01X9765Y23660D01*
G01X9781Y23664D01*
G01X9798Y23667D01*
G01X9815Y23668D01*
G01X9831Y23667D01*
G01X9848Y23664D01*
G01X9864Y23660D01*
G01X9879Y23655D01*
G01X9894Y23647D01*
G01X9908Y23639D01*
G01X9920Y23630D01*
G01X9932Y23619D01*
G01X9943Y23607D01*
G01X9952Y23594D01*
G01X9961Y23580D01*
G01X9967Y23566D01*
G01X9973Y23551D01*
G01X9977Y23535D01*
G01X9980Y23518D01*
G01X9981Y23502D01*
G01X9980Y23484D01*
G01X9977Y23468D01*
G01X9973Y23452D01*
G01X9967Y23437D01*
G01X9961Y23422D01*
G01X9952Y23409D01*
G01X9943Y23396D01*
G01X9932Y23384D01*
G01X9920Y23373D01*
G01X9908Y23364D01*
G01X9894Y23355D01*
G01X9879Y23348D01*
G01X9864Y23343D01*
G01X9848Y23339D01*
G01X9831Y23336D01*
G01X9815Y23335D01*
G01X9798Y23336D01*
G01X9781Y23339D01*
G01X9765Y23343D01*
G01X9750Y23348D01*
G01X9735Y23355D01*
G01X9722Y23364D01*
G01X9709Y23373D01*
G01X9697Y23384D01*
G01X9687Y23396D01*
G01X9677Y23409D01*
G01X9668Y23422D01*
G01X9662Y23437D01*
G01X9656Y23452D01*
G01X9652Y23468D01*
G01X9649Y23484D01*
G01X9648Y23502D01*
G01X9615D01*
G01X9616Y23481D01*
G01X9619Y23461D01*
G01X9624Y23442D01*
G01X9631Y23424D01*
G01X9639Y23407D01*
G01X9649Y23390D01*
G01X9661Y23375D01*
G01X9673Y23360D01*
G01X9688Y23348D01*
G01X9703Y23336D01*
G01X9720Y23326D01*
G01X9737Y23318D01*
G01X9755Y23311D01*
G01X9774Y23306D01*
G01X9794Y23303D01*
G01X9815Y23302D01*
G01X9835Y23303D01*
G01X9855Y23306D01*
G01X9874Y23311D01*
G01X9892Y23318D01*
G01X9910Y23326D01*
G01X9926Y23336D01*
G01X9942Y23348D01*
G01X9956Y23360D01*
G01X9968Y23375D01*
G01X9980Y23390D01*
G01X9990Y23407D01*
G01X9998Y23424D01*
G01X10005Y23442D01*
G01X10010Y23461D01*
G01X10013Y23481D01*
G01X10014Y23502D01*
G01X10013Y23522D01*
G01X10010Y23542D01*
G01X10005Y23561D01*
G01X9998Y23579D01*
G01X9990Y23597D01*
G01X9980Y23613D01*
G01X9968Y23628D01*
G01X9956Y23642D01*
G01X9942Y23656D01*
G01X9926Y23667D01*
G01X9910Y23677D01*
G01X9892Y23685D01*
G01X9874Y23692D01*
G01X9855Y23697D01*
G01X9835Y23700D01*
G37*
G36*
G01X12355Y23701D02*
G01X12334Y23700D01*
G01X12314Y23697D01*
G01X12295Y23692D01*
G01X12277Y23685D01*
G01X12260Y23677D01*
G01X12243Y23667D01*
G01X12228Y23656D01*
G01X12213Y23642D01*
G01X12201Y23628D01*
G01X12189Y23613D01*
G01X12179Y23597D01*
G01X12171Y23579D01*
G01X12164Y23561D01*
G01X12159Y23542D01*
G01X12156Y23522D01*
G01X12155Y23502D01*
G01X12188D01*
G01X12189Y23518D01*
G01X12192Y23535D01*
G01X12196Y23551D01*
G01X12202Y23566D01*
G01X12208Y23580D01*
G01X12217Y23594D01*
G01X12227Y23607D01*
G01X12237Y23619D01*
G01X12249Y23630D01*
G01X12262Y23639D01*
G01X12275Y23647D01*
G01X12290Y23655D01*
G01X12305Y23660D01*
G01X12321Y23664D01*
G01X12338Y23667D01*
G01X12355Y23668D01*
G01X12371Y23667D01*
G01X12388Y23664D01*
G01X12404Y23660D01*
G01X12419Y23655D01*
G01X12434Y23647D01*
G01X12448Y23639D01*
G01X12460Y23630D01*
G01X12472Y23619D01*
G01X12483Y23607D01*
G01X12492Y23594D01*
G01X12501Y23580D01*
G01X12507Y23566D01*
G01X12513Y23551D01*
G01X12517Y23535D01*
G01X12520Y23518D01*
G01X12521Y23502D01*
G01X12520Y23484D01*
G01X12517Y23468D01*
G01X12513Y23452D01*
G01X12507Y23437D01*
G01X12501Y23422D01*
G01X12492Y23409D01*
G01X12483Y23396D01*
G01X12472Y23384D01*
G01X12460Y23373D01*
G01X12448Y23364D01*
G01X12434Y23355D01*
G01X12419Y23348D01*
G01X12404Y23343D01*
G01X12388Y23339D01*
G01X12371Y23336D01*
G01X12355Y23335D01*
G01X12338Y23336D01*
G01X12321Y23339D01*
G01X12305Y23343D01*
G01X12290Y23348D01*
G01X12275Y23355D01*
G01X12262Y23364D01*
G01X12249Y23373D01*
G01X12237Y23384D01*
G01X12227Y23396D01*
G01X12217Y23409D01*
G01X12208Y23422D01*
G01X12202Y23437D01*
G01X12196Y23452D01*
G01X12192Y23468D01*
G01X12189Y23484D01*
G01X12188Y23502D01*
G01X12155D01*
G01X12156Y23481D01*
G01X12159Y23461D01*
G01X12164Y23442D01*
G01X12171Y23424D01*
G01X12179Y23407D01*
G01X12189Y23390D01*
G01X12201Y23375D01*
G01X12213Y23360D01*
G01X12228Y23348D01*
G01X12243Y23336D01*
G01X12260Y23326D01*
G01X12277Y23318D01*
G01X12295Y23311D01*
G01X12314Y23306D01*
G01X12334Y23303D01*
G01X12355Y23302D01*
G01X12375Y23303D01*
G01X12395Y23306D01*
G01X12414Y23311D01*
G01X12432Y23318D01*
G01X12450Y23326D01*
G01X12466Y23336D01*
G01X12482Y23348D01*
G01X12496Y23360D01*
G01X12508Y23375D01*
G01X12520Y23390D01*
G01X12530Y23407D01*
G01X12538Y23424D01*
G01X12545Y23442D01*
G01X12550Y23461D01*
G01X12553Y23481D01*
G01X12554Y23502D01*
G01X12553Y23522D01*
G01X12550Y23542D01*
G01X12545Y23561D01*
G01X12538Y23579D01*
G01X12530Y23597D01*
G01X12520Y23613D01*
G01X12508Y23628D01*
G01X12496Y23642D01*
G01X12482Y23656D01*
G01X12466Y23667D01*
G01X12450Y23677D01*
G01X12432Y23685D01*
G01X12414Y23692D01*
G01X12395Y23697D01*
G01X12375Y23700D01*
G37*
G36*
G01X14895Y23701D02*
G01X14874Y23700D01*
G01X14854Y23697D01*
G01X14835Y23692D01*
G01X14817Y23685D01*
G01X14800Y23677D01*
G01X14783Y23667D01*
G01X14768Y23656D01*
G01X14753Y23642D01*
G01X14741Y23628D01*
G01X14729Y23613D01*
G01X14719Y23597D01*
G01X14711Y23579D01*
G01X14704Y23561D01*
G01X14699Y23542D01*
G01X14696Y23522D01*
G01X14695Y23502D01*
G01X14728D01*
G01X14729Y23518D01*
G01X14732Y23535D01*
G01X14736Y23551D01*
G01X14742Y23566D01*
G01X14748Y23580D01*
G01X14757Y23594D01*
G01X14767Y23607D01*
G01X14777Y23619D01*
G01X14789Y23630D01*
G01X14802Y23639D01*
G01X14815Y23647D01*
G01X14830Y23655D01*
G01X14845Y23660D01*
G01X14861Y23664D01*
G01X14878Y23667D01*
G01X14895Y23668D01*
G01X14911Y23667D01*
G01X14928Y23664D01*
G01X14944Y23660D01*
G01X14959Y23655D01*
G01X14974Y23647D01*
G01X14988Y23639D01*
G01X15000Y23630D01*
G01X15012Y23619D01*
G01X15023Y23607D01*
G01X15032Y23594D01*
G01X15041Y23580D01*
G01X15047Y23566D01*
G01X15053Y23551D01*
G01X15057Y23535D01*
G01X15060Y23518D01*
G01X15061Y23502D01*
G01X15060Y23484D01*
G01X15057Y23468D01*
G01X15053Y23452D01*
G01X15047Y23437D01*
G01X15041Y23422D01*
G01X15032Y23409D01*
G01X15023Y23396D01*
G01X15012Y23384D01*
G01X15000Y23373D01*
G01X14988Y23364D01*
G01X14974Y23355D01*
G01X14959Y23348D01*
G01X14944Y23343D01*
G01X14928Y23339D01*
G01X14911Y23336D01*
G01X14895Y23335D01*
G01X14878Y23336D01*
G01X14861Y23339D01*
G01X14845Y23343D01*
G01X14830Y23348D01*
G01X14815Y23355D01*
G01X14802Y23364D01*
G01X14789Y23373D01*
G01X14777Y23384D01*
G01X14767Y23396D01*
G01X14757Y23409D01*
G01X14748Y23422D01*
G01X14742Y23437D01*
G01X14736Y23452D01*
G01X14732Y23468D01*
G01X14729Y23484D01*
G01X14728Y23502D01*
G01X14695D01*
G01X14696Y23481D01*
G01X14699Y23461D01*
G01X14704Y23442D01*
G01X14711Y23424D01*
G01X14719Y23407D01*
G01X14729Y23390D01*
G01X14741Y23375D01*
G01X14753Y23360D01*
G01X14768Y23348D01*
G01X14783Y23336D01*
G01X14800Y23326D01*
G01X14817Y23318D01*
G01X14835Y23311D01*
G01X14854Y23306D01*
G01X14874Y23303D01*
G01X14895Y23302D01*
G01X14915Y23303D01*
G01X14935Y23306D01*
G01X14954Y23311D01*
G01X14972Y23318D01*
G01X14990Y23326D01*
G01X15006Y23336D01*
G01X15022Y23348D01*
G01X15036Y23360D01*
G01X15048Y23375D01*
G01X15060Y23390D01*
G01X15070Y23407D01*
G01X15078Y23424D01*
G01X15085Y23442D01*
G01X15090Y23461D01*
G01X15093Y23481D01*
G01X15094Y23502D01*
G01X15093Y23522D01*
G01X15090Y23542D01*
G01X15085Y23561D01*
G01X15078Y23579D01*
G01X15070Y23597D01*
G01X15060Y23613D01*
G01X15048Y23628D01*
G01X15036Y23642D01*
G01X15022Y23656D01*
G01X15006Y23667D01*
G01X14990Y23677D01*
G01X14972Y23685D01*
G01X14954Y23692D01*
G01X14935Y23697D01*
G01X14915Y23700D01*
G37*
G36*
G01X17435Y23701D02*
G01X17414Y23700D01*
G01X17394Y23697D01*
G01X17375Y23692D01*
G01X17357Y23685D01*
G01X17340Y23677D01*
G01X17323Y23667D01*
G01X17308Y23656D01*
G01X17293Y23642D01*
G01X17281Y23628D01*
G01X17269Y23613D01*
G01X17259Y23597D01*
G01X17251Y23579D01*
G01X17244Y23561D01*
G01X17239Y23542D01*
G01X17236Y23522D01*
G01X17235Y23502D01*
G01X17268D01*
G01X17269Y23518D01*
G01X17272Y23535D01*
G01X17276Y23551D01*
G01X17282Y23566D01*
G01X17288Y23580D01*
G01X17297Y23594D01*
G01X17307Y23607D01*
G01X17317Y23619D01*
G01X17329Y23630D01*
G01X17342Y23639D01*
G01X17355Y23647D01*
G01X17370Y23655D01*
G01X17385Y23660D01*
G01X17401Y23664D01*
G01X17418Y23667D01*
G01X17435Y23668D01*
G01X17451Y23667D01*
G01X17468Y23664D01*
G01X17484Y23660D01*
G01X17499Y23655D01*
G01X17514Y23647D01*
G01X17528Y23639D01*
G01X17540Y23630D01*
G01X17552Y23619D01*
G01X17563Y23607D01*
G01X17572Y23594D01*
G01X17581Y23580D01*
G01X17587Y23566D01*
G01X17593Y23551D01*
G01X17597Y23535D01*
G01X17600Y23518D01*
G01X17601Y23502D01*
G01X17600Y23484D01*
G01X17597Y23468D01*
G01X17593Y23452D01*
G01X17587Y23437D01*
G01X17581Y23422D01*
G01X17572Y23409D01*
G01X17563Y23396D01*
G01X17552Y23384D01*
G01X17540Y23373D01*
G01X17528Y23364D01*
G01X17514Y23355D01*
G01X17499Y23348D01*
G01X17484Y23343D01*
G01X17468Y23339D01*
G01X17451Y23336D01*
G01X17435Y23335D01*
G01X17418Y23336D01*
G01X17401Y23339D01*
G01X17385Y23343D01*
G01X17370Y23348D01*
G01X17355Y23355D01*
G01X17342Y23364D01*
G01X17329Y23373D01*
G01X17317Y23384D01*
G01X17307Y23396D01*
G01X17297Y23409D01*
G01X17288Y23422D01*
G01X17282Y23437D01*
G01X17276Y23452D01*
G01X17272Y23468D01*
G01X17269Y23484D01*
G01X17268Y23502D01*
G01X17235D01*
G01X17236Y23481D01*
G01X17239Y23461D01*
G01X17244Y23442D01*
G01X17251Y23424D01*
G01X17259Y23407D01*
G01X17269Y23390D01*
G01X17281Y23375D01*
G01X17293Y23360D01*
G01X17308Y23348D01*
G01X17323Y23336D01*
G01X17340Y23326D01*
G01X17357Y23318D01*
G01X17375Y23311D01*
G01X17394Y23306D01*
G01X17414Y23303D01*
G01X17435Y23302D01*
G01X17455Y23303D01*
G01X17475Y23306D01*
G01X17494Y23311D01*
G01X17512Y23318D01*
G01X17530Y23326D01*
G01X17546Y23336D01*
G01X17562Y23348D01*
G01X17576Y23360D01*
G01X17588Y23375D01*
G01X17600Y23390D01*
G01X17610Y23407D01*
G01X17618Y23424D01*
G01X17625Y23442D01*
G01X17630Y23461D01*
G01X17633Y23481D01*
G01X17634Y23502D01*
G01X17633Y23522D01*
G01X17630Y23542D01*
G01X17625Y23561D01*
G01X17618Y23579D01*
G01X17610Y23597D01*
G01X17600Y23613D01*
G01X17588Y23628D01*
G01X17576Y23642D01*
G01X17562Y23656D01*
G01X17546Y23667D01*
G01X17530Y23677D01*
G01X17512Y23685D01*
G01X17494Y23692D01*
G01X17475Y23697D01*
G01X17455Y23700D01*
G37*
G36*
G01X19975Y23701D02*
G01X19954Y23700D01*
G01X19934Y23697D01*
G01X19915Y23692D01*
G01X19897Y23685D01*
G01X19880Y23677D01*
G01X19863Y23667D01*
G01X19848Y23656D01*
G01X19833Y23642D01*
G01X19821Y23628D01*
G01X19809Y23613D01*
G01X19799Y23597D01*
G01X19791Y23579D01*
G01X19784Y23561D01*
G01X19779Y23542D01*
G01X19776Y23522D01*
G01X19775Y23502D01*
G01X19808D01*
G01X19809Y23518D01*
G01X19812Y23535D01*
G01X19816Y23551D01*
G01X19822Y23566D01*
G01X19828Y23580D01*
G01X19837Y23594D01*
G01X19847Y23607D01*
G01X19857Y23619D01*
G01X19869Y23630D01*
G01X19882Y23639D01*
G01X19895Y23647D01*
G01X19910Y23655D01*
G01X19925Y23660D01*
G01X19941Y23664D01*
G01X19958Y23667D01*
G01X19975Y23668D01*
G01X19991Y23667D01*
G01X20008Y23664D01*
G01X20024Y23660D01*
G01X20039Y23655D01*
G01X20054Y23647D01*
G01X20068Y23639D01*
G01X20080Y23630D01*
G01X20092Y23619D01*
G01X20103Y23607D01*
G01X20112Y23594D01*
G01X20121Y23580D01*
G01X20127Y23566D01*
G01X20133Y23551D01*
G01X20137Y23535D01*
G01X20140Y23518D01*
G01X20141Y23502D01*
G01X20140Y23484D01*
G01X20137Y23468D01*
G01X20133Y23452D01*
G01X20127Y23437D01*
G01X20121Y23422D01*
G01X20112Y23409D01*
G01X20103Y23396D01*
G01X20092Y23384D01*
G01X20080Y23373D01*
G01X20068Y23364D01*
G01X20054Y23355D01*
G01X20039Y23348D01*
G01X20024Y23343D01*
G01X20008Y23339D01*
G01X19991Y23336D01*
G01X19975Y23335D01*
G01X19958Y23336D01*
G01X19941Y23339D01*
G01X19925Y23343D01*
G01X19910Y23348D01*
G01X19895Y23355D01*
G01X19882Y23364D01*
G01X19869Y23373D01*
G01X19857Y23384D01*
G01X19847Y23396D01*
G01X19837Y23409D01*
G01X19828Y23422D01*
G01X19822Y23437D01*
G01X19816Y23452D01*
G01X19812Y23468D01*
G01X19809Y23484D01*
G01X19808Y23502D01*
G01X19775D01*
G01X19776Y23481D01*
G01X19779Y23461D01*
G01X19784Y23442D01*
G01X19791Y23424D01*
G01X19799Y23407D01*
G01X19809Y23390D01*
G01X19821Y23375D01*
G01X19833Y23360D01*
G01X19848Y23348D01*
G01X19863Y23336D01*
G01X19880Y23326D01*
G01X19897Y23318D01*
G01X19915Y23311D01*
G01X19934Y23306D01*
G01X19954Y23303D01*
G01X19975Y23302D01*
G01X19995Y23303D01*
G01X20015Y23306D01*
G01X20034Y23311D01*
G01X20052Y23318D01*
G01X20070Y23326D01*
G01X20086Y23336D01*
G01X20102Y23348D01*
G01X20116Y23360D01*
G01X20128Y23375D01*
G01X20140Y23390D01*
G01X20150Y23407D01*
G01X20158Y23424D01*
G01X20165Y23442D01*
G01X20170Y23461D01*
G01X20173Y23481D01*
G01X20174Y23502D01*
G01X20173Y23522D01*
G01X20170Y23542D01*
G01X20165Y23561D01*
G01X20158Y23579D01*
G01X20150Y23597D01*
G01X20140Y23613D01*
G01X20128Y23628D01*
G01X20116Y23642D01*
G01X20102Y23656D01*
G01X20086Y23667D01*
G01X20070Y23677D01*
G01X20052Y23685D01*
G01X20034Y23692D01*
G01X20015Y23697D01*
G01X19995Y23700D01*
G37*
G36*
G01X22515Y23701D02*
G01X22494Y23700D01*
G01X22474Y23697D01*
G01X22455Y23692D01*
G01X22437Y23685D01*
G01X22420Y23677D01*
G01X22403Y23667D01*
G01X22388Y23656D01*
G01X22373Y23642D01*
G01X22361Y23628D01*
G01X22349Y23613D01*
G01X22339Y23597D01*
G01X22331Y23579D01*
G01X22324Y23561D01*
G01X22319Y23542D01*
G01X22316Y23522D01*
G01X22315Y23502D01*
G01X22348D01*
G01X22349Y23518D01*
G01X22352Y23535D01*
G01X22356Y23551D01*
G01X22362Y23566D01*
G01X22368Y23580D01*
G01X22377Y23594D01*
G01X22387Y23607D01*
G01X22397Y23619D01*
G01X22409Y23630D01*
G01X22422Y23639D01*
G01X22435Y23647D01*
G01X22450Y23655D01*
G01X22465Y23660D01*
G01X22481Y23664D01*
G01X22498Y23667D01*
G01X22515Y23668D01*
G01X22531Y23667D01*
G01X22548Y23664D01*
G01X22564Y23660D01*
G01X22579Y23655D01*
G01X22594Y23647D01*
G01X22608Y23639D01*
G01X22620Y23630D01*
G01X22632Y23619D01*
G01X22643Y23607D01*
G01X22652Y23594D01*
G01X22661Y23580D01*
G01X22667Y23566D01*
G01X22673Y23551D01*
G01X22677Y23535D01*
G01X22680Y23518D01*
G01X22681Y23502D01*
G01X22680Y23484D01*
G01X22677Y23468D01*
G01X22673Y23452D01*
G01X22667Y23437D01*
G01X22661Y23422D01*
G01X22652Y23409D01*
G01X22643Y23396D01*
G01X22632Y23384D01*
G01X22620Y23373D01*
G01X22608Y23364D01*
G01X22594Y23355D01*
G01X22579Y23348D01*
G01X22564Y23343D01*
G01X22548Y23339D01*
G01X22531Y23336D01*
G01X22515Y23335D01*
G01X22498Y23336D01*
G01X22481Y23339D01*
G01X22465Y23343D01*
G01X22450Y23348D01*
G01X22435Y23355D01*
G01X22422Y23364D01*
G01X22409Y23373D01*
G01X22397Y23384D01*
G01X22387Y23396D01*
G01X22377Y23409D01*
G01X22368Y23422D01*
G01X22362Y23437D01*
G01X22356Y23452D01*
G01X22352Y23468D01*
G01X22349Y23484D01*
G01X22348Y23502D01*
G01X22315D01*
G01X22316Y23481D01*
G01X22319Y23461D01*
G01X22324Y23442D01*
G01X22331Y23424D01*
G01X22339Y23407D01*
G01X22349Y23390D01*
G01X22361Y23375D01*
G01X22373Y23360D01*
G01X22388Y23348D01*
G01X22403Y23336D01*
G01X22420Y23326D01*
G01X22437Y23318D01*
G01X22455Y23311D01*
G01X22474Y23306D01*
G01X22494Y23303D01*
G01X22515Y23302D01*
G01X22535Y23303D01*
G01X22555Y23306D01*
G01X22574Y23311D01*
G01X22592Y23318D01*
G01X22610Y23326D01*
G01X22626Y23336D01*
G01X22642Y23348D01*
G01X22656Y23360D01*
G01X22668Y23375D01*
G01X22680Y23390D01*
G01X22690Y23407D01*
G01X22698Y23424D01*
G01X22705Y23442D01*
G01X22710Y23461D01*
G01X22713Y23481D01*
G01X22714Y23502D01*
G01X22713Y23522D01*
G01X22710Y23542D01*
G01X22705Y23561D01*
G01X22698Y23579D01*
G01X22690Y23597D01*
G01X22680Y23613D01*
G01X22668Y23628D01*
G01X22656Y23642D01*
G01X22642Y23656D01*
G01X22626Y23667D01*
G01X22610Y23677D01*
G01X22592Y23685D01*
G01X22574Y23692D01*
G01X22555Y23697D01*
G01X22535Y23700D01*
G37*
G36*
G01X25055Y23701D02*
G01X25034Y23700D01*
G01X25014Y23697D01*
G01X24995Y23692D01*
G01X24977Y23685D01*
G01X24960Y23677D01*
G01X24943Y23667D01*
G01X24928Y23656D01*
G01X24913Y23642D01*
G01X24901Y23628D01*
G01X24889Y23613D01*
G01X24879Y23597D01*
G01X24871Y23579D01*
G01X24864Y23561D01*
G01X24859Y23542D01*
G01X24856Y23522D01*
G01X24855Y23502D01*
G01X24888D01*
G01X24889Y23518D01*
G01X24892Y23535D01*
G01X24896Y23551D01*
G01X24902Y23566D01*
G01X24908Y23580D01*
G01X24917Y23594D01*
G01X24927Y23607D01*
G01X24937Y23619D01*
G01X24949Y23630D01*
G01X24962Y23639D01*
G01X24975Y23647D01*
G01X24990Y23655D01*
G01X25005Y23660D01*
G01X25021Y23664D01*
G01X25038Y23667D01*
G01X25055Y23668D01*
G01X25071Y23667D01*
G01X25088Y23664D01*
G01X25104Y23660D01*
G01X25119Y23655D01*
G01X25134Y23647D01*
G01X25148Y23639D01*
G01X25160Y23630D01*
G01X25172Y23619D01*
G01X25183Y23607D01*
G01X25192Y23594D01*
G01X25201Y23580D01*
G01X25207Y23566D01*
G01X25213Y23551D01*
G01X25217Y23535D01*
G01X25220Y23518D01*
G01X25221Y23502D01*
G01X25220Y23484D01*
G01X25217Y23468D01*
G01X25213Y23452D01*
G01X25207Y23437D01*
G01X25201Y23422D01*
G01X25192Y23409D01*
G01X25183Y23396D01*
G01X25172Y23384D01*
G01X25160Y23373D01*
G01X25148Y23364D01*
G01X25134Y23355D01*
G01X25119Y23348D01*
G01X25104Y23343D01*
G01X25088Y23339D01*
G01X25071Y23336D01*
G01X25055Y23335D01*
G01X25038Y23336D01*
G01X25021Y23339D01*
G01X25005Y23343D01*
G01X24990Y23348D01*
G01X24975Y23355D01*
G01X24962Y23364D01*
G01X24949Y23373D01*
G01X24937Y23384D01*
G01X24927Y23396D01*
G01X24917Y23409D01*
G01X24908Y23422D01*
G01X24902Y23437D01*
G01X24896Y23452D01*
G01X24892Y23468D01*
G01X24889Y23484D01*
G01X24888Y23502D01*
G01X24855D01*
G01X24856Y23481D01*
G01X24859Y23461D01*
G01X24864Y23442D01*
G01X24871Y23424D01*
G01X24879Y23407D01*
G01X24889Y23390D01*
G01X24901Y23375D01*
G01X24913Y23360D01*
G01X24928Y23348D01*
G01X24943Y23336D01*
G01X24960Y23326D01*
G01X24977Y23318D01*
G01X24995Y23311D01*
G01X25014Y23306D01*
G01X25034Y23303D01*
G01X25055Y23302D01*
G01X25075Y23303D01*
G01X25095Y23306D01*
G01X25114Y23311D01*
G01X25132Y23318D01*
G01X25150Y23326D01*
G01X25166Y23336D01*
G01X25182Y23348D01*
G01X25196Y23360D01*
G01X25208Y23375D01*
G01X25220Y23390D01*
G01X25230Y23407D01*
G01X25238Y23424D01*
G01X25245Y23442D01*
G01X25250Y23461D01*
G01X25253Y23481D01*
G01X25254Y23502D01*
G01X25253Y23522D01*
G01X25250Y23542D01*
G01X25245Y23561D01*
G01X25238Y23579D01*
G01X25230Y23597D01*
G01X25220Y23613D01*
G01X25208Y23628D01*
G01X25196Y23642D01*
G01X25182Y23656D01*
G01X25166Y23667D01*
G01X25150Y23677D01*
G01X25132Y23685D01*
G01X25114Y23692D01*
G01X25095Y23697D01*
G01X25075Y23700D01*
G37*
G36*
G01X27595Y23701D02*
G01X27574Y23700D01*
G01X27554Y23697D01*
G01X27535Y23692D01*
G01X27517Y23685D01*
G01X27500Y23677D01*
G01X27483Y23667D01*
G01X27468Y23656D01*
G01X27453Y23642D01*
G01X27441Y23628D01*
G01X27429Y23613D01*
G01X27419Y23597D01*
G01X27411Y23579D01*
G01X27404Y23561D01*
G01X27399Y23542D01*
G01X27396Y23522D01*
G01X27395Y23502D01*
G01X27428D01*
G01X27429Y23518D01*
G01X27432Y23535D01*
G01X27436Y23551D01*
G01X27442Y23566D01*
G01X27448Y23580D01*
G01X27457Y23594D01*
G01X27467Y23607D01*
G01X27477Y23619D01*
G01X27489Y23630D01*
G01X27502Y23639D01*
G01X27515Y23647D01*
G01X27530Y23655D01*
G01X27545Y23660D01*
G01X27561Y23664D01*
G01X27578Y23667D01*
G01X27595Y23668D01*
G01X27611Y23667D01*
G01X27628Y23664D01*
G01X27644Y23660D01*
G01X27659Y23655D01*
G01X27674Y23647D01*
G01X27688Y23639D01*
G01X27700Y23630D01*
G01X27712Y23619D01*
G01X27723Y23607D01*
G01X27732Y23594D01*
G01X27741Y23580D01*
G01X27747Y23566D01*
G01X27753Y23551D01*
G01X27757Y23535D01*
G01X27760Y23518D01*
G01X27761Y23502D01*
G01X27760Y23484D01*
G01X27757Y23468D01*
G01X27753Y23452D01*
G01X27747Y23437D01*
G01X27741Y23422D01*
G01X27732Y23409D01*
G01X27723Y23396D01*
G01X27712Y23384D01*
G01X27700Y23373D01*
G01X27688Y23364D01*
G01X27674Y23355D01*
G01X27659Y23348D01*
G01X27644Y23343D01*
G01X27628Y23339D01*
G01X27611Y23336D01*
G01X27595Y23335D01*
G01X27578Y23336D01*
G01X27561Y23339D01*
G01X27545Y23343D01*
G01X27530Y23348D01*
G01X27515Y23355D01*
G01X27502Y23364D01*
G01X27489Y23373D01*
G01X27477Y23384D01*
G01X27467Y23396D01*
G01X27457Y23409D01*
G01X27448Y23422D01*
G01X27442Y23437D01*
G01X27436Y23452D01*
G01X27432Y23468D01*
G01X27429Y23484D01*
G01X27428Y23502D01*
G01X27395D01*
G01X27396Y23481D01*
G01X27399Y23461D01*
G01X27404Y23442D01*
G01X27411Y23424D01*
G01X27419Y23407D01*
G01X27429Y23390D01*
G01X27441Y23375D01*
G01X27453Y23360D01*
G01X27468Y23348D01*
G01X27483Y23336D01*
G01X27500Y23326D01*
G01X27517Y23318D01*
G01X27535Y23311D01*
G01X27554Y23306D01*
G01X27574Y23303D01*
G01X27595Y23302D01*
G01X27615Y23303D01*
G01X27635Y23306D01*
G01X27654Y23311D01*
G01X27672Y23318D01*
G01X27690Y23326D01*
G01X27706Y23336D01*
G01X27722Y23348D01*
G01X27736Y23360D01*
G01X27748Y23375D01*
G01X27760Y23390D01*
G01X27770Y23407D01*
G01X27778Y23424D01*
G01X27785Y23442D01*
G01X27790Y23461D01*
G01X27793Y23481D01*
G01X27794Y23502D01*
G01X27793Y23522D01*
G01X27790Y23542D01*
G01X27785Y23561D01*
G01X27778Y23579D01*
G01X27770Y23597D01*
G01X27760Y23613D01*
G01X27748Y23628D01*
G01X27736Y23642D01*
G01X27722Y23656D01*
G01X27706Y23667D01*
G01X27690Y23677D01*
G01X27672Y23685D01*
G01X27654Y23692D01*
G01X27635Y23697D01*
G01X27615Y23700D01*
G37*
G36*
G01X38953Y13514D02*
G01X38973Y13481D01*
G01X39011D01*
G01X39295D01*
G01X39153Y13235D01*
G01X39082Y13358D01*
G01X39011Y13481D01*
G01X38973D01*
G01X39053Y13342D01*
G01X39153Y13169D01*
G01X39253Y13342D01*
G01X39352Y13514D01*
G37*
G36*
G01X40953Y13514D02*
G01X40973Y13481D01*
G01X41011D01*
G01X41295D01*
G01X41153Y13235D01*
G01X41082Y13358D01*
G01X41011Y13481D01*
G01X40973D01*
G01X41053Y13342D01*
G01X41153Y13169D01*
G01X41253Y13342D01*
G01X41352Y13514D01*
G37*
G36*
G01X42953Y13514D02*
G01X42973Y13481D01*
G01X43011D01*
G01X43295D01*
G01X43153Y13235D01*
G01X43082Y13358D01*
G01X43011Y13481D01*
G01X42973D01*
G01X43053Y13342D01*
G01X43153Y13169D01*
G01X43253Y13342D01*
G01X43352Y13514D01*
G37*
G36*
G01X44953Y13514D02*
G01X44973Y13481D01*
G01X45011D01*
G01X45295D01*
G01X45224Y13358D01*
G01X45153Y13235D01*
G01X45011Y13481D01*
G01X44973D01*
G01X45053Y13342D01*
G01X45153Y13169D01*
G01X45253Y13342D01*
G01X45352Y13514D01*
G37*
G36*
G01X46953Y13514D02*
G01X46973Y13481D01*
G01X47011D01*
G01X47295D01*
G01X47224Y13358D01*
G01X47153Y13235D01*
G01X47011Y13481D01*
G01X46973D01*
G01X47053Y13342D01*
G01X47153Y13169D01*
G01X47253Y13342D01*
G01X47352Y13514D01*
G37*
G36*
G01X48953Y13514D02*
G01X48973Y13481D01*
G01X49011D01*
G01X49295D01*
G01X49224Y13358D01*
G01X49153Y13235D01*
G01X49011Y13481D01*
G01X48973D01*
G01X49053Y13342D01*
G01X49153Y13169D01*
G01X49253Y13342D01*
G01X49352Y13514D01*
G37*
G36*
G01X38952Y4179D02*
G01X38971Y4146D01*
G01X39010D01*
G01X39293D01*
G01X39223Y4023D01*
G01X39152Y3900D01*
G01X39080Y4023D01*
G01X39010Y4146D01*
G01X38971D01*
G01X39052Y4007D01*
G01X39152Y3834D01*
G01X39251Y4007D01*
G01X39351Y4179D01*
G37*
G36*
G01X40952Y4179D02*
G01X40971Y4146D01*
G01X41010D01*
G01X41293D01*
G01X41223Y4023D01*
G01X41152Y3900D01*
G01X41080Y4023D01*
G01X41010Y4146D01*
G01X40971D01*
G01X41052Y4007D01*
G01X41152Y3834D01*
G01X41251Y4007D01*
G01X41351Y4179D01*
G37*
G36*
G01X42952Y4179D02*
G01X42971Y4146D01*
G01X43010D01*
G01X43293D01*
G01X43223Y4023D01*
G01X43152Y3900D01*
G01X43080Y4023D01*
G01X43010Y4146D01*
G01X42971D01*
G01X43052Y4007D01*
G01X43152Y3834D01*
G01X43251Y4007D01*
G01X43351Y4179D01*
G37*
G36*
G01X44952Y4179D02*
G01X44971Y4146D01*
G01X45010D01*
G01X45293D01*
G01X45223Y4023D01*
G01X45152Y3900D01*
G01X45080Y4023D01*
G01X45010Y4146D01*
G01X44971D01*
G01X45052Y4007D01*
G01X45152Y3834D01*
G01X45251Y4007D01*
G01X45351Y4179D01*
G37*
G36*
G01X46952Y4179D02*
G01X46971Y4146D01*
G01X47010D01*
G01X47293D01*
G01X47223Y4023D01*
G01X47152Y3900D01*
G01X47080Y4023D01*
G01X47010Y4146D01*
G01X46971D01*
G01X47052Y4007D01*
G01X47152Y3834D01*
G01X47251Y4007D01*
G01X47351Y4179D01*
G37*
G36*
G01X48952Y4179D02*
G01X48971Y4146D01*
G01X49010D01*
G01X49293D01*
G01X49223Y4023D01*
G01X49152Y3900D01*
G01X49080Y4023D01*
G01X49010Y4146D01*
G01X48971D01*
G01X49052Y4007D01*
G01X49152Y3834D01*
G01X49251Y4007D01*
G01X49351Y4179D01*
G37*
G36*
G01X4917Y13514D02*
G01X4937Y13481D01*
G01X4975D01*
G01X5259D01*
G01X5188Y13358D01*
G01X5117Y13235D01*
G01X4975Y13481D01*
G01X4937D01*
G01X5017Y13342D01*
G01X5117Y13169D01*
G01X5217Y13342D01*
G01X5316Y13514D01*
G37*
G36*
G01X6917Y13514D02*
G01X6937Y13481D01*
G01X6975D01*
G01X7259D01*
G01X7188Y13358D01*
G01X7117Y13235D01*
G01X6975Y13481D01*
G01X6937D01*
G01X7017Y13342D01*
G01X7117Y13169D01*
G01X7217Y13342D01*
G01X7316Y13514D01*
G37*
G36*
G01X8917Y13514D02*
G01X8937Y13481D01*
G01X8975D01*
G01X9259D01*
G01X9188Y13358D01*
G01X9117Y13235D01*
G01X8975Y13481D01*
G01X8937D01*
G01X9017Y13342D01*
G01X9117Y13169D01*
G01X9217Y13342D01*
G01X9316Y13514D01*
G37*
G36*
G01X10917Y13514D02*
G01X10937Y13481D01*
G01X10975D01*
G01X11259D01*
G01X11117Y13235D01*
G01X11046Y13358D01*
G01X10975Y13481D01*
G01X10937D01*
G01X11017Y13342D01*
G01X11117Y13169D01*
G01X11217Y13342D01*
G01X11316Y13514D01*
G37*
G36*
G01X12917Y13514D02*
G01X12937Y13481D01*
G01X12975D01*
G01X13259D01*
G01X13188Y13358D01*
G01X13117Y13235D01*
G01X12975Y13481D01*
G01X12937D01*
G01X13017Y13342D01*
G01X13117Y13169D01*
G01X13217Y13342D01*
G01X13316Y13514D01*
G37*
G36*
G01X14917Y13514D02*
G01X14937Y13481D01*
G01X14975D01*
G01X15259D01*
G01X15188Y13358D01*
G01X15117Y13235D01*
G01X14975Y13481D01*
G01X14937D01*
G01X15017Y13342D01*
G01X15117Y13169D01*
G01X15217Y13342D01*
G01X15316Y13514D01*
G37*
G36*
G01X5044Y4052D02*
G01X5063Y4019D01*
G01X5102D01*
G01X5386D01*
G01X5315Y3896D01*
G01X5244Y3773D01*
G01X5102Y4019D01*
G01X5063D01*
G01X5144Y3880D01*
G01X5244Y3707D01*
G01X5344Y3880D01*
G01X5443Y4052D01*
G37*
G36*
G01X7044Y4052D02*
G01X7063Y4019D01*
G01X7102D01*
G01X7386D01*
G01X7315Y3896D01*
G01X7244Y3773D01*
G01X7102Y4019D01*
G01X7063D01*
G01X7144Y3880D01*
G01X7244Y3707D01*
G01X7344Y3880D01*
G01X7443Y4052D01*
G37*
G36*
G01X9044Y4052D02*
G01X9063Y4019D01*
G01X9102D01*
G01X9386D01*
G01X9315Y3896D01*
G01X9244Y3773D01*
G01X9102Y4019D01*
G01X9063D01*
G01X9144Y3880D01*
G01X9244Y3707D01*
G01X9344Y3880D01*
G01X9443Y4052D01*
G37*
G36*
G01X11044Y4052D02*
G01X11063Y4019D01*
G01X11102D01*
G01X11386D01*
G01X11244Y3773D01*
G01X11173Y3896D01*
G01X11102Y4019D01*
G01X11063D01*
G01X11144Y3880D01*
G01X11244Y3707D01*
G01X11344Y3880D01*
G01X11443Y4052D01*
G37*
G36*
G01X13044Y4052D02*
G01X13063Y4019D01*
G01X13102D01*
G01X13386D01*
G01X13315Y3896D01*
G01X13244Y3773D01*
G01X13102Y4019D01*
G01X13063D01*
G01X13144Y3880D01*
G01X13244Y3707D01*
G01X13344Y3880D01*
G01X13443Y4052D01*
G37*
G36*
G01X15044Y4052D02*
G01X15063Y4019D01*
G01X15102D01*
G01X15386D01*
G01X15315Y3896D01*
G01X15244Y3773D01*
G01X15102Y4019D01*
G01X15063D01*
G01X15144Y3880D01*
G01X15244Y3707D01*
G01X15344Y3880D01*
G01X15443Y4052D01*
G37*
G36*
G01X54915Y13572D02*
G01X54858Y13441D01*
G01X54716Y13456D01*
G01X54801Y13342D01*
G01X54747Y13268D01*
G01X54789D01*
G01X54828Y13321D01*
G01X54843Y13342D01*
G01X54828Y13361D01*
G01X54789Y13414D01*
G01X54854Y13407D01*
G01X54879Y13405D01*
G01X54889Y13427D01*
G01X54915Y13487D01*
G01X54952Y13405D01*
G01X54977Y13407D01*
G01X55042Y13414D01*
G01X55003Y13361D01*
G01X54988Y13342D01*
G01X55003Y13321D01*
G01X55042Y13268D01*
G01X54977Y13276D01*
G01X54952Y13278D01*
G01X54915Y13196D01*
G01X54889Y13255D01*
G01X54879Y13278D01*
G01X54854Y13276D01*
G01X54789Y13268D01*
G01X54747D01*
G01X54716Y13226D01*
G01X54858Y13242D01*
G01X54915Y13111D01*
G01X54973Y13242D01*
G01X55115Y13226D01*
G01X55031Y13342D01*
G01X55115Y13456D01*
G01X54973Y13441D01*
G37*
G36*
G01X56916Y13572D02*
G01X56858Y13441D01*
G01X56716Y13456D01*
G01X56800Y13342D01*
G01X56747Y13268D01*
G01X56789D01*
G01X56828Y13321D01*
G01X56843Y13342D01*
G01X56828Y13361D01*
G01X56789Y13414D01*
G01X56854Y13407D01*
G01X56879Y13405D01*
G01X56916Y13487D01*
G01X56942Y13427D01*
G01X56952Y13405D01*
G01X56977Y13407D01*
G01X57042Y13414D01*
G01X57003Y13361D01*
G01X56988Y13342D01*
G01X57003Y13321D01*
G01X57042Y13268D01*
G01X56977Y13276D01*
G01X56952Y13278D01*
G01X56942Y13255D01*
G01X56916Y13196D01*
G01X56879Y13278D01*
G01X56854Y13276D01*
G01X56789Y13268D01*
G01X56747D01*
G01X56716Y13226D01*
G01X56858Y13242D01*
G01X56916Y13111D01*
G01X56973Y13242D01*
G01X57115Y13226D01*
G01X57031Y13342D01*
G01X57115Y13456D01*
G01X56973Y13441D01*
G37*
G36*
G01X58916Y13572D02*
G01X58858Y13441D01*
G01X58716Y13456D01*
G01X58800Y13342D01*
G01X58747Y13268D01*
G01X58789D01*
G01X58828Y13321D01*
G01X58843Y13342D01*
G01X58828Y13361D01*
G01X58789Y13414D01*
G01X58854Y13407D01*
G01X58879Y13405D01*
G01X58916Y13487D01*
G01X58942Y13427D01*
G01X58952Y13405D01*
G01X58977Y13407D01*
G01X59042Y13414D01*
G01X59003Y13361D01*
G01X58988Y13342D01*
G01X59003Y13321D01*
G01X59042Y13268D01*
G01X58977Y13276D01*
G01X58952Y13278D01*
G01X58942Y13255D01*
G01X58916Y13196D01*
G01X58879Y13278D01*
G01X58854Y13276D01*
G01X58789Y13268D01*
G01X58747D01*
G01X58716Y13226D01*
G01X58858Y13242D01*
G01X58916Y13111D01*
G01X58973Y13242D01*
G01X59115Y13226D01*
G01X59031Y13342D01*
G01X59115Y13456D01*
G01X58973Y13441D01*
G37*
G36*
G01X60916Y13572D02*
G01X60858Y13441D01*
G01X60716Y13456D01*
G01X60800Y13342D01*
G01X60747Y13268D01*
G01X60789D01*
G01X60828Y13321D01*
G01X60843Y13342D01*
G01X60828Y13361D01*
G01X60789Y13414D01*
G01X60854Y13407D01*
G01X60879Y13405D01*
G01X60916Y13487D01*
G01X60942Y13427D01*
G01X60952Y13405D01*
G01X60977Y13407D01*
G01X61042Y13414D01*
G01X61003Y13361D01*
G01X60988Y13342D01*
G01X61003Y13321D01*
G01X61042Y13268D01*
G01X60977Y13276D01*
G01X60952Y13278D01*
G01X60942Y13255D01*
G01X60916Y13196D01*
G01X60879Y13278D01*
G01X60854Y13276D01*
G01X60789Y13268D01*
G01X60747D01*
G01X60716Y13226D01*
G01X60858Y13242D01*
G01X60916Y13111D01*
G01X60973Y13242D01*
G01X61115Y13226D01*
G01X61031Y13342D01*
G01X61115Y13456D01*
G01X60973Y13441D01*
G37*
G36*
G01X62916Y13572D02*
G01X62858Y13441D01*
G01X62716Y13456D01*
G01X62800Y13342D01*
G01X62747Y13268D01*
G01X62789D01*
G01X62828Y13321D01*
G01X62843Y13342D01*
G01X62828Y13361D01*
G01X62789Y13414D01*
G01X62854Y13407D01*
G01X62879Y13405D01*
G01X62916Y13487D01*
G01X62942Y13427D01*
G01X62952Y13405D01*
G01X62977Y13407D01*
G01X63042Y13414D01*
G01X63003Y13361D01*
G01X62988Y13342D01*
G01X63003Y13321D01*
G01X63042Y13268D01*
G01X62977Y13276D01*
G01X62952Y13278D01*
G01X62942Y13255D01*
G01X62916Y13196D01*
G01X62879Y13278D01*
G01X62854Y13276D01*
G01X62789Y13268D01*
G01X62747D01*
G01X62716Y13226D01*
G01X62858Y13242D01*
G01X62916Y13111D01*
G01X62973Y13242D01*
G01X63115Y13226D01*
G01X63031Y13342D01*
G01X63115Y13456D01*
G01X62973Y13441D01*
G37*
G36*
G01X64916Y13572D02*
G01X64858Y13441D01*
G01X64716Y13456D01*
G01X64800Y13342D01*
G01X64747Y13268D01*
G01X64789D01*
G01X64828Y13321D01*
G01X64843Y13342D01*
G01X64828Y13361D01*
G01X64789Y13414D01*
G01X64854Y13407D01*
G01X64879Y13405D01*
G01X64916Y13487D01*
G01X64942Y13427D01*
G01X64952Y13405D01*
G01X64977Y13407D01*
G01X65042Y13414D01*
G01X65003Y13361D01*
G01X64988Y13342D01*
G01X65003Y13321D01*
G01X65042Y13268D01*
G01X64977Y13276D01*
G01X64952Y13278D01*
G01X64942Y13255D01*
G01X64916Y13196D01*
G01X64879Y13278D01*
G01X64854Y13276D01*
G01X64789Y13268D01*
G01X64747D01*
G01X64716Y13226D01*
G01X64858Y13242D01*
G01X64916Y13111D01*
G01X64973Y13242D01*
G01X65115Y13226D01*
G01X65031Y13342D01*
G01X65115Y13456D01*
G01X64973Y13441D01*
G37*
G36*
G01X66916Y13572D02*
G01X66858Y13441D01*
G01X66716Y13456D01*
G01X66800Y13342D01*
G01X66747Y13268D01*
G01X66789D01*
G01X66828Y13321D01*
G01X66843Y13342D01*
G01X66828Y13361D01*
G01X66789Y13414D01*
G01X66854Y13407D01*
G01X66879Y13405D01*
G01X66916Y13487D01*
G01X66942Y13427D01*
G01X66952Y13405D01*
G01X66977Y13407D01*
G01X67042Y13414D01*
G01X67003Y13361D01*
G01X66988Y13342D01*
G01X67003Y13321D01*
G01X67042Y13268D01*
G01X66977Y13276D01*
G01X66952Y13278D01*
G01X66942Y13255D01*
G01X66916Y13196D01*
G01X66879Y13278D01*
G01X66854Y13276D01*
G01X66789Y13268D01*
G01X66747D01*
G01X66716Y13226D01*
G01X66858Y13242D01*
G01X66916Y13111D01*
G01X66973Y13242D01*
G01X67115Y13226D01*
G01X67031Y13342D01*
G01X67115Y13456D01*
G01X66973Y13441D01*
G37*
G36*
G01X54915Y4237D02*
G01X54858Y4107D01*
G01X54716Y4122D01*
G01X54801Y4007D01*
G01X54747Y3934D01*
G01X54789D01*
G01X54828Y3987D01*
G01X54843Y4007D01*
G01X54828Y4027D01*
G01X54789Y4080D01*
G01X54854Y4073D01*
G01X54879Y4070D01*
G01X54889Y4093D01*
G01X54915Y4152D01*
G01X54952Y4070D01*
G01X54977Y4073D01*
G01X55042Y4080D01*
G01X55003Y4027D01*
G01X54988Y4007D01*
G01X55003Y3987D01*
G01X55042Y3934D01*
G01X54977Y3941D01*
G01X54952Y3944D01*
G01X54915Y3861D01*
G01X54889Y3921D01*
G01X54879Y3944D01*
G01X54854Y3941D01*
G01X54789Y3934D01*
G01X54747D01*
G01X54716Y3892D01*
G01X54858Y3907D01*
G01X54915Y3776D01*
G01X54973Y3907D01*
G01X55115Y3892D01*
G01X55031Y4007D01*
G01X55115Y4122D01*
G01X54973Y4107D01*
G37*
G36*
G01X56916Y4237D02*
G01X56858Y4107D01*
G01X56716Y4122D01*
G01X56800Y4007D01*
G01X56747Y3934D01*
G01X56789D01*
G01X56828Y3987D01*
G01X56843Y4007D01*
G01X56828Y4027D01*
G01X56789Y4080D01*
G01X56854Y4073D01*
G01X56879Y4070D01*
G01X56916Y4152D01*
G01X56942Y4093D01*
G01X56952Y4070D01*
G01X56977Y4073D01*
G01X57042Y4080D01*
G01X57003Y4027D01*
G01X56988Y4007D01*
G01X57003Y3987D01*
G01X57042Y3934D01*
G01X56977Y3941D01*
G01X56952Y3944D01*
G01X56942Y3921D01*
G01X56916Y3861D01*
G01X56879Y3944D01*
G01X56854Y3941D01*
G01X56789Y3934D01*
G01X56747D01*
G01X56716Y3892D01*
G01X56858Y3907D01*
G01X56916Y3776D01*
G01X56973Y3907D01*
G01X57115Y3892D01*
G01X57031Y4007D01*
G01X57115Y4122D01*
G01X56973Y4107D01*
G37*
G36*
G01X58916Y4237D02*
G01X58858Y4107D01*
G01X58716Y4122D01*
G01X58800Y4007D01*
G01X58747Y3934D01*
G01X58789D01*
G01X58828Y3987D01*
G01X58843Y4007D01*
G01X58828Y4027D01*
G01X58789Y4080D01*
G01X58854Y4073D01*
G01X58879Y4070D01*
G01X58916Y4152D01*
G01X58942Y4093D01*
G01X58952Y4070D01*
G01X58977Y4073D01*
G01X59042Y4080D01*
G01X59003Y4027D01*
G01X58988Y4007D01*
G01X59003Y3987D01*
G01X59042Y3934D01*
G01X58977Y3941D01*
G01X58952Y3944D01*
G01X58942Y3921D01*
G01X58916Y3861D01*
G01X58879Y3944D01*
G01X58854Y3941D01*
G01X58789Y3934D01*
G01X58747D01*
G01X58716Y3892D01*
G01X58858Y3907D01*
G01X58916Y3776D01*
G01X58973Y3907D01*
G01X59115Y3892D01*
G01X59031Y4007D01*
G01X59115Y4122D01*
G01X58973Y4107D01*
G37*
G36*
G01X60916Y4237D02*
G01X60858Y4107D01*
G01X60716Y4122D01*
G01X60800Y4007D01*
G01X60747Y3934D01*
G01X60789D01*
G01X60828Y3987D01*
G01X60843Y4007D01*
G01X60828Y4027D01*
G01X60789Y4080D01*
G01X60854Y4073D01*
G01X60879Y4070D01*
G01X60916Y4152D01*
G01X60942Y4093D01*
G01X60952Y4070D01*
G01X60977Y4073D01*
G01X61042Y4080D01*
G01X61003Y4027D01*
G01X60988Y4007D01*
G01X61003Y3987D01*
G01X61042Y3934D01*
G01X60977Y3941D01*
G01X60952Y3944D01*
G01X60942Y3921D01*
G01X60916Y3861D01*
G01X60879Y3944D01*
G01X60854Y3941D01*
G01X60789Y3934D01*
G01X60747D01*
G01X60716Y3892D01*
G01X60858Y3907D01*
G01X60916Y3776D01*
G01X60973Y3907D01*
G01X61115Y3892D01*
G01X61031Y4007D01*
G01X61115Y4122D01*
G01X60973Y4107D01*
G37*
G36*
G01X62916Y4237D02*
G01X62858Y4107D01*
G01X62716Y4122D01*
G01X62800Y4007D01*
G01X62747Y3934D01*
G01X62789D01*
G01X62828Y3987D01*
G01X62843Y4007D01*
G01X62828Y4027D01*
G01X62789Y4080D01*
G01X62854Y4073D01*
G01X62879Y4070D01*
G01X62916Y4152D01*
G01X62942Y4093D01*
G01X62952Y4070D01*
G01X62977Y4073D01*
G01X63042Y4080D01*
G01X63003Y4027D01*
G01X62988Y4007D01*
G01X63003Y3987D01*
G01X63042Y3934D01*
G01X62977Y3941D01*
G01X62952Y3944D01*
G01X62942Y3921D01*
G01X62916Y3861D01*
G01X62879Y3944D01*
G01X62854Y3941D01*
G01X62789Y3934D01*
G01X62747D01*
G01X62716Y3892D01*
G01X62858Y3907D01*
G01X62916Y3776D01*
G01X62973Y3907D01*
G01X63115Y3892D01*
G01X63031Y4007D01*
G01X63115Y4122D01*
G01X62973Y4107D01*
G37*
G36*
G01X64916Y4237D02*
G01X64858Y4107D01*
G01X64716Y4122D01*
G01X64800Y4007D01*
G01X64747Y3934D01*
G01X64789D01*
G01X64828Y3987D01*
G01X64843Y4007D01*
G01X64828Y4027D01*
G01X64789Y4080D01*
G01X64854Y4073D01*
G01X64879Y4070D01*
G01X64916Y4152D01*
G01X64942Y4093D01*
G01X64952Y4070D01*
G01X64977Y4073D01*
G01X65042Y4080D01*
G01X65003Y4027D01*
G01X64988Y4007D01*
G01X65003Y3987D01*
G01X65042Y3934D01*
G01X64977Y3941D01*
G01X64952Y3944D01*
G01X64942Y3921D01*
G01X64916Y3861D01*
G01X64879Y3944D01*
G01X64854Y3941D01*
G01X64789Y3934D01*
G01X64747D01*
G01X64716Y3892D01*
G01X64858Y3907D01*
G01X64916Y3776D01*
G01X64973Y3907D01*
G01X65115Y3892D01*
G01X65031Y4007D01*
G01X65115Y4122D01*
G01X64973Y4107D01*
G37*
G36*
G01X66916Y4237D02*
G01X66858Y4107D01*
G01X66716Y4122D01*
G01X66800Y4007D01*
G01X66747Y3934D01*
G01X66789D01*
G01X66828Y3987D01*
G01X66843Y4007D01*
G01X66828Y4027D01*
G01X66789Y4080D01*
G01X66854Y4073D01*
G01X66879Y4070D01*
G01X66916Y4152D01*
G01X66942Y4093D01*
G01X66952Y4070D01*
G01X66977Y4073D01*
G01X67042Y4080D01*
G01X67003Y4027D01*
G01X66988Y4007D01*
G01X67003Y3987D01*
G01X67042Y3934D01*
G01X66977Y3941D01*
G01X66952Y3944D01*
G01X66942Y3921D01*
G01X66916Y3861D01*
G01X66879Y3944D01*
G01X66854Y3941D01*
G01X66789Y3934D01*
G01X66747D01*
G01X66716Y3892D01*
G01X66858Y3907D01*
G01X66916Y3776D01*
G01X66973Y3907D01*
G01X67115Y3892D01*
G01X67031Y4007D01*
G01X67115Y4122D01*
G01X66973Y4107D01*
G37*
G36*
G01X21261Y13572D02*
G01X21203Y13441D01*
G01X21061Y13456D01*
G01X21146Y13342D01*
G01X21092Y13268D01*
G01X21134D01*
G01X21173Y13321D01*
G01X21188Y13342D01*
G01X21173Y13361D01*
G01X21134Y13414D01*
G01X21199Y13407D01*
G01X21224Y13405D01*
G01X21261Y13487D01*
G01X21287Y13427D01*
G01X21297Y13405D01*
G01X21322Y13407D01*
G01X21387Y13414D01*
G01X21348Y13361D01*
G01X21333Y13342D01*
G01X21348Y13321D01*
G01X21387Y13268D01*
G01X21322Y13276D01*
G01X21297Y13278D01*
G01X21287Y13255D01*
G01X21261Y13196D01*
G01X21224Y13278D01*
G01X21199Y13276D01*
G01X21134Y13268D01*
G01X21092D01*
G01X21061Y13226D01*
G01X21203Y13242D01*
G01X21261Y13111D01*
G01X21318Y13242D01*
G01X21460Y13226D01*
G01X21376Y13342D01*
G01X21460Y13456D01*
G01X21318Y13441D01*
G37*
G36*
G01X23261Y13572D02*
G01X23203Y13441D01*
G01X23061Y13456D01*
G01X23145Y13342D01*
G01X23092Y13268D01*
G01X23134D01*
G01X23173Y13321D01*
G01X23188Y13342D01*
G01X23173Y13361D01*
G01X23134Y13414D01*
G01X23199Y13407D01*
G01X23224Y13405D01*
G01X23261Y13487D01*
G01X23287Y13427D01*
G01X23297Y13405D01*
G01X23322Y13407D01*
G01X23387Y13414D01*
G01X23348Y13361D01*
G01X23333Y13342D01*
G01X23348Y13321D01*
G01X23387Y13268D01*
G01X23322Y13276D01*
G01X23297Y13278D01*
G01X23287Y13255D01*
G01X23261Y13196D01*
G01X23224Y13278D01*
G01X23199Y13276D01*
G01X23134Y13268D01*
G01X23092D01*
G01X23061Y13226D01*
G01X23203Y13242D01*
G01X23261Y13111D01*
G01X23318Y13242D01*
G01X23460Y13226D01*
G01X23376Y13342D01*
G01X23460Y13456D01*
G01X23318Y13441D01*
G37*
G36*
G01X25261Y13572D02*
G01X25203Y13441D01*
G01X25061Y13456D01*
G01X25145Y13342D01*
G01X25092Y13268D01*
G01X25134D01*
G01X25173Y13321D01*
G01X25188Y13342D01*
G01X25173Y13361D01*
G01X25134Y13414D01*
G01X25199Y13407D01*
G01X25224Y13405D01*
G01X25261Y13487D01*
G01X25287Y13427D01*
G01X25297Y13405D01*
G01X25322Y13407D01*
G01X25387Y13414D01*
G01X25348Y13361D01*
G01X25333Y13342D01*
G01X25348Y13321D01*
G01X25387Y13268D01*
G01X25322Y13276D01*
G01X25297Y13278D01*
G01X25287Y13255D01*
G01X25261Y13196D01*
G01X25224Y13278D01*
G01X25199Y13276D01*
G01X25134Y13268D01*
G01X25092D01*
G01X25061Y13226D01*
G01X25203Y13242D01*
G01X25261Y13111D01*
G01X25318Y13242D01*
G01X25460Y13226D01*
G01X25376Y13342D01*
G01X25460Y13456D01*
G01X25318Y13441D01*
G37*
G36*
G01X27261Y13572D02*
G01X27203Y13441D01*
G01X27061Y13456D01*
G01X27145Y13342D01*
G01X27092Y13268D01*
G01X27134D01*
G01X27173Y13321D01*
G01X27188Y13342D01*
G01X27173Y13361D01*
G01X27134Y13414D01*
G01X27199Y13407D01*
G01X27224Y13405D01*
G01X27261Y13487D01*
G01X27287Y13427D01*
G01X27297Y13405D01*
G01X27322Y13407D01*
G01X27387Y13414D01*
G01X27348Y13361D01*
G01X27333Y13342D01*
G01X27348Y13321D01*
G01X27387Y13268D01*
G01X27322Y13276D01*
G01X27297Y13278D01*
G01X27287Y13255D01*
G01X27261Y13196D01*
G01X27224Y13278D01*
G01X27199Y13276D01*
G01X27134Y13268D01*
G01X27092D01*
G01X27061Y13226D01*
G01X27203Y13242D01*
G01X27261Y13111D01*
G01X27318Y13242D01*
G01X27460Y13226D01*
G01X27376Y13342D01*
G01X27460Y13456D01*
G01X27318Y13441D01*
G37*
G36*
G01X29261Y13572D02*
G01X29203Y13441D01*
G01X29061Y13456D01*
G01X29145Y13342D01*
G01X29092Y13268D01*
G01X29134D01*
G01X29173Y13321D01*
G01X29188Y13342D01*
G01X29173Y13361D01*
G01X29134Y13414D01*
G01X29199Y13407D01*
G01X29224Y13405D01*
G01X29261Y13487D01*
G01X29287Y13427D01*
G01X29297Y13405D01*
G01X29322Y13407D01*
G01X29387Y13414D01*
G01X29348Y13361D01*
G01X29333Y13342D01*
G01X29348Y13321D01*
G01X29387Y13268D01*
G01X29322Y13276D01*
G01X29297Y13278D01*
G01X29287Y13255D01*
G01X29261Y13196D01*
G01X29224Y13278D01*
G01X29199Y13276D01*
G01X29134Y13268D01*
G01X29092D01*
G01X29061Y13226D01*
G01X29203Y13242D01*
G01X29261Y13111D01*
G01X29318Y13242D01*
G01X29460Y13226D01*
G01X29376Y13342D01*
G01X29460Y13456D01*
G01X29318Y13441D01*
G37*
G36*
G01X31261Y13572D02*
G01X31203Y13441D01*
G01X31061Y13456D01*
G01X31145Y13342D01*
G01X31092Y13268D01*
G01X31134D01*
G01X31173Y13321D01*
G01X31188Y13342D01*
G01X31173Y13361D01*
G01X31134Y13414D01*
G01X31199Y13407D01*
G01X31224Y13405D01*
G01X31261Y13487D01*
G01X31287Y13427D01*
G01X31297Y13405D01*
G01X31322Y13407D01*
G01X31387Y13414D01*
G01X31348Y13361D01*
G01X31333Y13342D01*
G01X31348Y13321D01*
G01X31387Y13268D01*
G01X31322Y13276D01*
G01X31297Y13278D01*
G01X31287Y13255D01*
G01X31261Y13196D01*
G01X31224Y13278D01*
G01X31199Y13276D01*
G01X31134Y13268D01*
G01X31092D01*
G01X31061Y13226D01*
G01X31203Y13242D01*
G01X31261Y13111D01*
G01X31318Y13242D01*
G01X31460Y13226D01*
G01X31376Y13342D01*
G01X31460Y13456D01*
G01X31318Y13441D01*
G37*
G36*
G01X33261Y13572D02*
G01X33203Y13441D01*
G01X33061Y13456D01*
G01X33145Y13341D01*
G01X33092Y13268D01*
G01X33134D01*
G01X33173Y13321D01*
G01X33188Y13341D01*
G01X33173Y13361D01*
G01X33134Y13414D01*
G01X33199Y13407D01*
G01X33224Y13405D01*
G01X33261Y13487D01*
G01X33287Y13427D01*
G01X33297Y13405D01*
G01X33322Y13407D01*
G01X33387Y13414D01*
G01X33348Y13361D01*
G01X33333Y13341D01*
G01X33348Y13321D01*
G01X33387Y13268D01*
G01X33322Y13276D01*
G01X33297Y13278D01*
G01X33287Y13255D01*
G01X33261Y13196D01*
G01X33224Y13278D01*
G01X33199Y13276D01*
G01X33134Y13268D01*
G01X33092D01*
G01X33061Y13226D01*
G01X33203Y13242D01*
G01X33261Y13111D01*
G01X33318Y13242D01*
G01X33460Y13226D01*
G01X33376Y13341D01*
G01X33460Y13456D01*
G01X33318Y13441D01*
G37*
G36*
G01X21261Y4110D02*
G01X21203Y3980D01*
G01X21061Y3995D01*
G01X21146Y3880D01*
G01X21092Y3807D01*
G01X21134D01*
G01X21173Y3860D01*
G01X21188Y3880D01*
G01X21173Y3900D01*
G01X21134Y3953D01*
G01X21199Y3946D01*
G01X21224Y3943D01*
G01X21261Y4025D01*
G01X21287Y3966D01*
G01X21297Y3943D01*
G01X21322Y3946D01*
G01X21387Y3953D01*
G01X21348Y3900D01*
G01X21333Y3880D01*
G01X21348Y3860D01*
G01X21387Y3807D01*
G01X21322Y3814D01*
G01X21297Y3817D01*
G01X21287Y3794D01*
G01X21261Y3734D01*
G01X21224Y3817D01*
G01X21199Y3814D01*
G01X21134Y3807D01*
G01X21092D01*
G01X21061Y3765D01*
G01X21203Y3780D01*
G01X21261Y3649D01*
G01X21318Y3780D01*
G01X21460Y3765D01*
G01X21376Y3880D01*
G01X21460Y3995D01*
G01X21318Y3980D01*
G37*
G36*
G01X23261Y4110D02*
G01X23203Y3980D01*
G01X23061Y3995D01*
G01X23145Y3880D01*
G01X23092Y3807D01*
G01X23134D01*
G01X23173Y3860D01*
G01X23188Y3880D01*
G01X23173Y3900D01*
G01X23134Y3953D01*
G01X23199Y3946D01*
G01X23224Y3943D01*
G01X23261Y4025D01*
G01X23287Y3966D01*
G01X23297Y3943D01*
G01X23322Y3946D01*
G01X23387Y3953D01*
G01X23348Y3900D01*
G01X23333Y3880D01*
G01X23348Y3860D01*
G01X23387Y3807D01*
G01X23322Y3814D01*
G01X23297Y3817D01*
G01X23287Y3794D01*
G01X23261Y3734D01*
G01X23224Y3817D01*
G01X23199Y3814D01*
G01X23134Y3807D01*
G01X23092D01*
G01X23061Y3765D01*
G01X23203Y3780D01*
G01X23261Y3649D01*
G01X23318Y3780D01*
G01X23460Y3765D01*
G01X23376Y3880D01*
G01X23460Y3995D01*
G01X23318Y3980D01*
G37*
G36*
G01X25261Y4110D02*
G01X25203Y3980D01*
G01X25061Y3995D01*
G01X25145Y3880D01*
G01X25092Y3807D01*
G01X25134D01*
G01X25173Y3860D01*
G01X25188Y3880D01*
G01X25173Y3900D01*
G01X25134Y3953D01*
G01X25199Y3946D01*
G01X25224Y3943D01*
G01X25261Y4025D01*
G01X25287Y3966D01*
G01X25297Y3943D01*
G01X25322Y3946D01*
G01X25387Y3953D01*
G01X25348Y3900D01*
G01X25333Y3880D01*
G01X25348Y3860D01*
G01X25387Y3807D01*
G01X25322Y3814D01*
G01X25297Y3817D01*
G01X25287Y3794D01*
G01X25261Y3734D01*
G01X25224Y3817D01*
G01X25199Y3814D01*
G01X25134Y3807D01*
G01X25092D01*
G01X25061Y3765D01*
G01X25203Y3780D01*
G01X25261Y3649D01*
G01X25318Y3780D01*
G01X25460Y3765D01*
G01X25376Y3880D01*
G01X25460Y3995D01*
G01X25318Y3980D01*
G37*
G36*
G01X27261Y4110D02*
G01X27203Y3980D01*
G01X27061Y3995D01*
G01X27145Y3880D01*
G01X27092Y3807D01*
G01X27134D01*
G01X27173Y3860D01*
G01X27188Y3880D01*
G01X27173Y3900D01*
G01X27134Y3953D01*
G01X27199Y3946D01*
G01X27224Y3943D01*
G01X27261Y4025D01*
G01X27287Y3966D01*
G01X27297Y3943D01*
G01X27322Y3946D01*
G01X27387Y3953D01*
G01X27348Y3900D01*
G01X27333Y3880D01*
G01X27348Y3860D01*
G01X27387Y3807D01*
G01X27322Y3814D01*
G01X27297Y3817D01*
G01X27287Y3794D01*
G01X27261Y3734D01*
G01X27224Y3817D01*
G01X27199Y3814D01*
G01X27134Y3807D01*
G01X27092D01*
G01X27061Y3765D01*
G01X27203Y3780D01*
G01X27261Y3649D01*
G01X27318Y3780D01*
G01X27460Y3765D01*
G01X27376Y3880D01*
G01X27460Y3995D01*
G01X27318Y3980D01*
G37*
G36*
G01X29261Y4110D02*
G01X29203Y3980D01*
G01X29061Y3995D01*
G01X29145Y3880D01*
G01X29092Y3807D01*
G01X29134D01*
G01X29173Y3860D01*
G01X29188Y3880D01*
G01X29173Y3900D01*
G01X29134Y3953D01*
G01X29199Y3946D01*
G01X29224Y3943D01*
G01X29261Y4025D01*
G01X29287Y3966D01*
G01X29297Y3943D01*
G01X29322Y3946D01*
G01X29387Y3953D01*
G01X29348Y3900D01*
G01X29333Y3880D01*
G01X29348Y3860D01*
G01X29387Y3807D01*
G01X29322Y3814D01*
G01X29297Y3817D01*
G01X29287Y3794D01*
G01X29261Y3734D01*
G01X29224Y3817D01*
G01X29199Y3814D01*
G01X29134Y3807D01*
G01X29092D01*
G01X29061Y3765D01*
G01X29203Y3780D01*
G01X29261Y3649D01*
G01X29318Y3780D01*
G01X29460Y3765D01*
G01X29376Y3880D01*
G01X29460Y3995D01*
G01X29318Y3980D01*
G37*
G36*
G01X31261Y4110D02*
G01X31203Y3980D01*
G01X31061Y3995D01*
G01X31145Y3880D01*
G01X31092Y3807D01*
G01X31134D01*
G01X31173Y3860D01*
G01X31188Y3880D01*
G01X31173Y3900D01*
G01X31134Y3953D01*
G01X31199Y3946D01*
G01X31224Y3943D01*
G01X31261Y4025D01*
G01X31287Y3966D01*
G01X31297Y3943D01*
G01X31322Y3946D01*
G01X31387Y3953D01*
G01X31348Y3900D01*
G01X31333Y3880D01*
G01X31348Y3860D01*
G01X31387Y3807D01*
G01X31322Y3814D01*
G01X31297Y3817D01*
G01X31287Y3794D01*
G01X31261Y3734D01*
G01X31224Y3817D01*
G01X31199Y3814D01*
G01X31134Y3807D01*
G01X31092D01*
G01X31061Y3765D01*
G01X31203Y3780D01*
G01X31261Y3649D01*
G01X31318Y3780D01*
G01X31460Y3765D01*
G01X31376Y3880D01*
G01X31460Y3995D01*
G01X31318Y3980D01*
G37*
G36*
G01X33261Y4110D02*
G01X33203Y3980D01*
G01X33061Y3995D01*
G01X33145Y3880D01*
G01X33092Y3807D01*
G01X33134D01*
G01X33173Y3860D01*
G01X33188Y3880D01*
G01X33173Y3900D01*
G01X33134Y3953D01*
G01X33199Y3946D01*
G01X33224Y3943D01*
G01X33261Y4025D01*
G01X33287Y3966D01*
G01X33297Y3943D01*
G01X33322Y3946D01*
G01X33387Y3953D01*
G01X33348Y3900D01*
G01X33333Y3880D01*
G01X33348Y3860D01*
G01X33387Y3807D01*
G01X33322Y3814D01*
G01X33297Y3817D01*
G01X33287Y3794D01*
G01X33261Y3734D01*
G01X33224Y3817D01*
G01X33199Y3814D01*
G01X33134Y3807D01*
G01X33092D01*
G01X33061Y3765D01*
G01X33203Y3780D01*
G01X33261Y3649D01*
G01X33318Y3780D01*
G01X33460Y3765D01*
G01X33376Y3880D01*
G01X33460Y3995D01*
G01X33318Y3980D01*
G37*
G04 Image End*
G54D10*

M02*
