G04 Layer: BottomSilkscreenLayer*
G04 EasyEDA Pro v2.0.34.720dcead.1ebef4, 2023-10-23 10:25:04*
G04 Gerber Generator version 0.3*
G04 Scale: 100 percent, Rotated: No, Reflected: No*
G04 Dimensions in millimeters*
G04 Leading zeros omitted, absolute positions, 3 integers and 3 decimals*
%FSLAX33Y33*%
%MOMM*%
%ADD10C,0.152*%
%ADD11C,0.254*%
G75*


G04 Text Start*
G04 //text: 1*
G54D10*
G01X52791Y29362D02*
G01X52697Y29411D01*
G01X52555Y29550D01*
G01Y28562D01*
G04 //text: 9*
G01X27287Y29220D02*
G01X27333Y29081D01*
G01X27429Y28987D01*
G01X27569Y28938D01*
G01X27617D01*
G01X27757Y28987D01*
G01X27851Y29081D01*
G01X27899Y29220D01*
G01Y29268D01*
G01X27851Y29411D01*
G01X27757Y29505D01*
G01X27617Y29550D01*
G01X27569D01*
G01X27429Y29505D01*
G01X27333Y29411D01*
G01X27287Y29220D01*
G01Y28987D01*
G01X27333Y28750D01*
G01X27429Y28608D01*
G01X27569Y28562D01*
G01X27663D01*
G01X27805Y28608D01*
G01X27851Y28702D01*
G04 //text: 8*
G01X34775Y29550D02*
G01X34917Y29505D01*
G01X34963Y29411D01*
G01Y29317D01*
G01X34917Y29220D01*
G01X34823Y29175D01*
G01X34635Y29126D01*
G01X34493Y29081D01*
G01X34399Y28987D01*
G01X34351Y28893D01*
G01Y28750D01*
G01X34399Y28656D01*
G01X34445Y28608D01*
G01X34587Y28562D01*
G01X34775D01*
G01X34917Y28608D01*
G01X34963Y28656D01*
G01X35011Y28750D01*
G01Y28893D01*
G01X34963Y28987D01*
G01X34869Y29081D01*
G01X34729Y29126D01*
G01X34541Y29175D01*
G01X34445Y29220D01*
G01X34399Y29317D01*
G01Y29411D01*
G01X34445Y29505D01*
G01X34587Y29550D01*
G01X34775D01*
G04 //text: 16*
G01X10090Y29312D02*
G01X9994Y29360D01*
G01X9851Y29502D01*
G01Y28496D01*
G01X8894Y29360D02*
G01X8942Y29454D01*
G01X9084Y29502D01*
G01X9181D01*
G01X9326Y29454D01*
G01X9420Y29312D01*
G01X9468Y29070D01*
G01Y28832D01*
G01X9420Y28641D01*
G01X9326Y28544D01*
G01X9181Y28496D01*
G01X9133D01*
G01X8990Y28544D01*
G01X8894Y28641D01*
G01X8846Y28783D01*
G01Y28832D01*
G01X8894Y28976D01*
G01X8990Y29070D01*
G01X9133Y29119D01*
G01X9181D01*
G01X9326Y29070D01*
G01X9420Y28976D01*
G01X9468Y28832D01*
G04 //text: B+*
G01X64747Y29489D02*
G01X64747Y28484D01*
G01X64747Y29489D02*
G01X64315Y29489D01*
G01X64173Y29441D01*
G01X64125Y29393D01*
G01X64077Y29299D01*
G01Y29202D01*
G01X64125Y29106D01*
G01X64173Y29058D01*
G01X64315Y29012D01*
G01X64747Y29012D02*
G01X64315Y29012D01*
G01X64173Y28964D01*
G01X64125Y28915D01*
G01X64077Y28819D01*
G01Y28674D01*
G01X64125Y28580D01*
G01X64173Y28532D01*
G01X64315Y28484D01*
G01X64747D01*
G01X63264Y29347D02*
G01X63264Y28484D01*
G01X63693Y28915D02*
G01X62832Y28915D01*
G04 //text: B-*
G01X59823Y29453D02*
G01X59823Y28447D01*
G01X59823Y29453D02*
G01X59392Y29453D01*
G01X59249Y29404D01*
G01X59201Y29356D01*
G01X59153Y29262D01*
G01Y29166D01*
G01X59201Y29069D01*
G01X59249Y29021D01*
G01X59392Y28975D01*
G01X59823Y28975D02*
G01X59392Y28975D01*
G01X59249Y28927D01*
G01X59201Y28879D01*
G01X59153Y28782D01*
G01Y28637D01*
G01X59201Y28543D01*
G01X59249Y28495D01*
G01X59392Y28447D01*
G01X59823D01*
G01X58769Y28879D02*
G01X57908Y28879D01*
G04 //text: CELLS_1-8*
G01X47421Y29468D02*
G01X47469Y29564D01*
G01X47565Y29658D01*
G01X47659Y29707D01*
G01X47852D01*
G01X47949Y29658D01*
G01X48043Y29564D01*
G01X48091Y29468D01*
G01X48139Y29323D01*
G01Y29084D01*
G01X48091Y28939D01*
G01X48043Y28846D01*
G01X47949Y28749D01*
G01X47852Y28701D01*
G01X47659D01*
G01X47565Y28749D01*
G01X47469Y28846D01*
G01X47421Y28939D01*
G01X47040Y29707D02*
G01X47040Y28701D01*
G01X47040Y29707D02*
G01X46415Y29707D01*
G01X47040Y29229D02*
G01X46656Y29229D01*
G01X47040Y28701D02*
G01X46415Y28701D01*
G01X46034Y29707D02*
G01X46034Y28701D01*
G01X46034Y28701D02*
G01X45457Y28701D01*
G01X45076Y29707D02*
G01X45076Y28701D01*
G01X45076Y28701D02*
G01X44502Y28701D01*
G01X43448Y29564D02*
G01X43544Y29658D01*
G01X43687Y29707D01*
G01X43880D01*
G01X44022Y29658D01*
G01X44119Y29564D01*
G01Y29468D01*
G01X44070Y29371D01*
G01X44022Y29323D01*
G01X43928Y29275D01*
G01X43638Y29181D01*
G01X43544Y29133D01*
G01X43496Y29084D01*
G01X43448Y28988D01*
G01Y28846D01*
G01X43544Y28749D01*
G01X43687Y28701D01*
G01X43880D01*
G01X44022Y28749D01*
G01X44119Y28846D01*
G01X43064Y28365D02*
G01X42203Y28365D01*
G01X41820Y29516D02*
G01X41726Y29564D01*
G01X41581Y29707D01*
G01Y28701D01*
G01X41200Y29133D02*
G01X40336Y29133D01*
G01X39714Y29707D02*
G01X39859Y29658D01*
G01X39907Y29564D01*
G01Y29468D01*
G01X39859Y29371D01*
G01X39762Y29323D01*
G01X39572Y29275D01*
G01X39427Y29229D01*
G01X39331Y29133D01*
G01X39285Y29036D01*
G01Y28891D01*
G01X39331Y28797D01*
G01X39379Y28749D01*
G01X39524Y28701D01*
G01X39714D01*
G01X39859Y28749D01*
G01X39907Y28797D01*
G01X39955Y28891D01*
G01Y29036D01*
G01X39907Y29133D01*
G01X39811Y29229D01*
G01X39666Y29275D01*
G01X39475Y29323D01*
G01X39379Y29371D01*
G01X39331Y29468D01*
G01Y29564D01*
G01X39379Y29658D01*
G01X39524Y29707D01*
G01X39714D01*
G04 //text: CELLS_9-16*
G01X22275Y29512D02*
G01X22323Y29609D01*
G01X22419Y29703D01*
G01X22513Y29751D01*
G01X22706D01*
G01X22803Y29703D01*
G01X22897Y29609D01*
G01X22945Y29512D01*
G01X22993Y29367D01*
G01Y29129D01*
G01X22945Y28984D01*
G01X22897Y28890D01*
G01X22803Y28793D01*
G01X22706Y28745D01*
G01X22513D01*
G01X22419Y28793D01*
G01X22323Y28890D01*
G01X22275Y28984D01*
G01X21894Y29751D02*
G01X21894Y28745D01*
G01X21894Y29751D02*
G01X21269Y29751D01*
G01X21894Y29274D02*
G01X21510Y29274D01*
G01X21894Y28745D02*
G01X21269Y28745D01*
G01X20888Y29751D02*
G01X20888Y28745D01*
G01X20888Y28745D02*
G01X20311Y28745D01*
G01X19930Y29751D02*
G01X19930Y28745D01*
G01X19930Y28745D02*
G01X19356Y28745D01*
G01X18302Y29609D02*
G01X18398Y29703D01*
G01X18541Y29751D01*
G01X18734D01*
G01X18876Y29703D01*
G01X18973Y29609D01*
G01Y29512D01*
G01X18924Y29416D01*
G01X18876Y29367D01*
G01X18782Y29319D01*
G01X18492Y29225D01*
G01X18398Y29177D01*
G01X18350Y29129D01*
G01X18302Y29032D01*
G01Y28890D01*
G01X18398Y28793D01*
G01X18541Y28745D01*
G01X18734D01*
G01X18876Y28793D01*
G01X18973Y28890D01*
G01X17918Y28410D02*
G01X17057Y28410D01*
G01X16052Y29416D02*
G01X16100Y29274D01*
G01X16196Y29177D01*
G01X16339Y29129D01*
G01X16387D01*
G01X16532Y29177D01*
G01X16628Y29274D01*
G01X16674Y29416D01*
G01Y29464D01*
G01X16628Y29609D01*
G01X16532Y29703D01*
G01X16387Y29751D01*
G01X16339D01*
G01X16196Y29703D01*
G01X16100Y29609D01*
G01X16052Y29416D01*
G01Y29177D01*
G01X16100Y28936D01*
G01X16196Y28793D01*
G01X16339Y28745D01*
G01X16435D01*
G01X16580Y28793D01*
G01X16628Y28890D01*
G01X15671Y29177D02*
G01X14807Y29177D01*
G01X14426Y29561D02*
G01X14329Y29609D01*
G01X14185Y29751D01*
G01Y28745D01*
G01X13230Y29609D02*
G01X13275Y29703D01*
G01X13420Y29751D01*
G01X13517D01*
G01X13659Y29703D01*
G01X13755Y29561D01*
G01X13804Y29319D01*
G01Y29080D01*
G01X13755Y28890D01*
G01X13659Y28793D01*
G01X13517Y28745D01*
G01X13468D01*
G01X13324Y28793D01*
G01X13230Y28890D01*
G01X13181Y29032D01*
G01Y29080D01*
G01X13230Y29225D01*
G01X13324Y29319D01*
G01X13468Y29367D01*
G01X13517D01*
G01X13659Y29319D01*
G01X13755Y29225D01*
G01X13804Y29080D01*
G04 Text End*

G04 PolygonModel Start*
G54D11*
G01X66291Y27701D02*
G01X56811Y27701D01*
G01X60281Y20580D02*
G01X65361Y20580D01*
G01X65234Y26930D02*
G01X65103Y26930D01*
G01X65361Y26930D02*
G01X64956Y26930D01*
G01X62821Y20580D02*
G01X62821Y25406D01*
G01X62821Y25406D02*
G01X63583Y25406D01*
G01X63583Y25406D02*
G01X63583Y26168D01*
G01X63583Y26168D02*
G01X62821Y26168D01*
G01X62821Y26168D02*
G01X62821Y26930D01*
G01X62821Y26930D02*
G01X65234Y26930D01*
G01X65234Y26168D02*
G01X65361Y26168D01*
G01X65361Y26168D02*
G01X65361Y26930D01*
G01X65234Y26168D02*
G01X64599Y26168D01*
G01X64599Y26168D02*
G01X64599Y25406D01*
G01X64599Y25406D02*
G01X65361Y25406D01*
G01X65361Y25406D02*
G01X65361Y20580D01*
G01X62694Y26930D02*
G01X62563Y26930D01*
G01X62821Y26930D02*
G01X62416Y26930D01*
G01X60281Y20580D02*
G01X60281Y25406D01*
G01X60281Y25406D02*
G01X61043Y25406D01*
G01X61043Y25406D02*
G01X61043Y26168D01*
G01X61043Y26168D02*
G01X60281Y26168D01*
G01X60281Y26168D02*
G01X60281Y26930D01*
G01X60281Y26930D02*
G01X62694Y26930D01*
G01X62694Y26168D02*
G01X62821Y26168D01*
G01X62821Y26168D02*
G01X62821Y26930D01*
G01X62694Y26168D02*
G01X62059Y26168D01*
G01X62059Y26168D02*
G01X62059Y25406D01*
G01X62059Y25406D02*
G01X62821Y25406D01*
G01X62821Y25406D02*
G01X62821Y20580D01*
G01X60154Y26168D02*
G01X59519Y26168D01*
G01X59519Y26168D02*
G01X59519Y25406D01*
G01X59519Y25406D02*
G01X60281Y25406D01*
G01X60281Y25406D02*
G01X60281Y20580D01*
G01X57741Y20580D02*
G01X57741Y25406D01*
G01X57741Y25406D02*
G01X58503Y25406D01*
G01X58503Y25406D02*
G01X58503Y26168D01*
G01X58503Y26168D02*
G01X57741Y26168D01*
G01X57741Y26168D02*
G01X57741Y26930D01*
G01X57741Y26930D02*
G01X60154Y26930D01*
G01X60281Y26930D02*
G01X59876Y26930D01*
G01X60154Y26930D02*
G01X60023Y26930D01*
G01X60154Y26168D02*
G01X60281Y26168D01*
G01X60281Y26168D02*
G01X60281Y26930D01*
G01X60281Y20580D02*
G01X57741Y20580D01*
G01X66291Y19601D02*
G01X66291Y27701D01*
G01X66291Y19601D02*
G01X56811Y19601D01*
G01X56811Y19601D02*
G01X56811Y27701D01*
G01X53337Y26721D02*
G01X51887Y26721D01*
G01X52628Y27701D02*
G01X52628Y26071D01*
G01X35557Y26721D02*
G01X34107Y26721D01*
G01X34848Y27701D02*
G01X34848Y26071D01*
G01X38097Y26721D02*
G01X36647Y26721D01*
G01X37388Y27701D02*
G01X37388Y26071D01*
G01X40636Y26721D02*
G01X39186Y26721D01*
G01X39928Y27701D02*
G01X39928Y26071D01*
G01X43177Y26721D02*
G01X41727Y26721D01*
G01X42468Y27701D02*
G01X42468Y26071D01*
G01X45717Y26721D02*
G01X44267Y26721D01*
G01X45008Y27701D02*
G01X45008Y26071D01*
G01X48257Y26721D02*
G01X46807Y26721D01*
G01X47548Y27701D02*
G01X47548Y26071D01*
G01X50088Y27701D02*
G01X50088Y26071D01*
G01X50797Y26721D02*
G01X49347Y26721D01*
G01X32507Y27701D02*
G01X32507Y19601D01*
G01X32507Y19601D02*
G01X54687Y19601D01*
G01X54687Y27701D02*
G01X54687Y19601D01*
G01X32507Y27701D02*
G01X54687Y27701D01*
G01X28445Y26721D02*
G01X26995Y26721D01*
G01X27736Y27701D02*
G01X27736Y26071D01*
G01X10665Y26721D02*
G01X9215Y26721D01*
G01X9956Y27701D02*
G01X9956Y26071D01*
G01X13205Y26721D02*
G01X11755Y26721D01*
G01X12496Y27701D02*
G01X12496Y26071D01*
G01X15744Y26721D02*
G01X14294Y26721D01*
G01X15036Y27701D02*
G01X15036Y26071D01*
G01X18285Y26721D02*
G01X16835Y26721D01*
G01X17576Y27701D02*
G01X17576Y26071D01*
G01X20825Y26721D02*
G01X19375Y26721D01*
G01X20116Y27701D02*
G01X20116Y26071D01*
G01X23365Y26721D02*
G01X21915Y26721D01*
G01X22656Y27701D02*
G01X22656Y26071D01*
G01X25196Y27701D02*
G01X25196Y26071D01*
G01X25905Y26721D02*
G01X24455Y26721D01*
G01X7615Y27701D02*
G01X7615Y19601D01*
G01X7615Y19601D02*
G01X29795Y19601D01*
G01X29795Y27701D02*
G01X29795Y19601D01*
G01X7615Y27701D02*
G01X29795Y27701D01*
G04 PolygonModel End*

M02*
