G04 Layer: TopSilkscreenLayer*
G04 EasyEDA Pro v2.0.34.720dcead.1ebef4, 2023-10-23 10:25:04*
G04 Gerber Generator version 0.3*
G04 Scale: 100 percent, Rotated: No, Reflected: No*
G04 Dimensions in millimeters*
G04 Leading zeros omitted, absolute positions, 3 integers and 3 decimals*
%FSLAX33Y33*%
%MOMM*%
%ADD10C,0.152*%
%ADD11C,0.254*%
G75*


G04 Text Start*
G04 //text: 2_IN*
G54D10*
G01X41708Y18271D02*
G01X41708Y18320D01*
G01X41756Y18414D01*
G01X41805Y18462D01*
G01X41899Y18510D01*
G01X42092D01*
G01X42186Y18462D01*
G01X42234Y18414D01*
G01X42282Y18320D01*
G01Y18223D01*
G01X42234Y18127D01*
G01X42140Y17984D01*
G01X41660Y17504D01*
G01X42330D01*
G01X42714Y17169D02*
G01X43575Y17169D01*
G01X43958Y18510D02*
G01X43958Y17504D01*
G01X44339Y18510D02*
G01X44339Y17504D01*
G01X44339Y18510D02*
G01X45010Y17504D01*
G01X45010Y18510D02*
G01X45010Y17504D01*
G04 //text: 2_OUT*
G01X41482Y9122D02*
G01X41482Y9171D01*
G01X41530Y9265D01*
G01X41579Y9313D01*
G01X41673Y9361D01*
G01X41866D01*
G01X41960Y9313D01*
G01X42008Y9265D01*
G01X42056Y9171D01*
G01Y9074D01*
G01X42008Y8978D01*
G01X41914Y8835D01*
G01X41434Y8355D01*
G01X42104D01*
G01X42488Y8020D02*
G01X43349Y8020D01*
G01X44019Y9361D02*
G01X43923Y9313D01*
G01X43826Y9219D01*
G01X43778Y9122D01*
G01X43732Y8978D01*
G01Y8739D01*
G01X43778Y8594D01*
G01X43826Y8500D01*
G01X43923Y8404D01*
G01X44019Y8355D01*
G01X44210D01*
G01X44306Y8404D01*
G01X44403Y8500D01*
G01X44451Y8594D01*
G01X44497Y8739D01*
G01Y8978D01*
G01X44451Y9122D01*
G01X44403Y9219D01*
G01X44306Y9313D01*
G01X44210Y9361D01*
G01X44019D01*
G01X44881Y9361D02*
G01X44881Y8642D01*
G01X44929Y8500D01*
G01X45025Y8404D01*
G01X45168Y8355D01*
G01X45264D01*
G01X45406Y8404D01*
G01X45503Y8500D01*
G01X45551Y8642D01*
G01Y9361D01*
G01X46270Y9361D02*
G01X46270Y8355D01*
G01X45935Y9361D02*
G01X46605Y9361D01*
G04 //text: 4_IN*
G01X8866Y18637D02*
G01X8386Y17967D01*
G01X9105D01*
G01X8866Y18637D02*
G01X8866Y17631D01*
G01X9486Y17296D02*
G01X10349Y17296D01*
G01X10730Y18637D02*
G01X10730Y17631D01*
G01X11114Y18637D02*
G01X11114Y17631D01*
G01X11114Y18637D02*
G01X11784Y17631D01*
G01X11784Y18637D02*
G01X11784Y17631D01*
G04 //text: 4_OUT*
G01X8005Y9361D02*
G01X7525Y8691D01*
G01X8244D01*
G01X8005Y9361D02*
G01X8005Y8355D01*
G01X8625Y8020D02*
G01X9488Y8020D01*
G01X10159Y9361D02*
G01X10062Y9313D01*
G01X9966Y9219D01*
G01X9917Y9122D01*
G01X9869Y8978D01*
G01Y8739D01*
G01X9917Y8594D01*
G01X9966Y8500D01*
G01X10062Y8404D01*
G01X10159Y8355D01*
G01X10349D01*
G01X10446Y8404D01*
G01X10542Y8500D01*
G01X10588Y8594D01*
G01X10636Y8739D01*
G01Y8978D01*
G01X10588Y9122D01*
G01X10542Y9219D01*
G01X10446Y9313D01*
G01X10349Y9361D01*
G01X10159D01*
G01X11020Y9361D02*
G01X11020Y8642D01*
G01X11068Y8500D01*
G01X11162Y8404D01*
G01X11307Y8355D01*
G01X11403D01*
G01X11546Y8404D01*
G01X11642Y8500D01*
G01X11690Y8642D01*
G01Y9361D01*
G01X12407Y9361D02*
G01X12407Y8355D01*
G01X12071Y9361D02*
G01X12742Y9361D01*
G04 //text: 1_IN*
G01X58932Y18447D02*
G01X59028Y18495D01*
G01X59171Y18637D01*
G01Y17631D01*
G01X59554Y17296D02*
G01X60415Y17296D01*
G01X60799Y18637D02*
G01X60799Y17631D01*
G01X61180Y18637D02*
G01X61180Y17631D01*
G01X61180Y18637D02*
G01X61850Y17631D01*
G01X61850Y18637D02*
G01X61850Y17631D01*
G04 //text: 1_OUT*
G01X58579Y9171D02*
G01X58675Y9219D01*
G01X58818Y9361D01*
G01Y8355D01*
G01X59201Y8020D02*
G01X60062Y8020D01*
G01X60733Y9361D02*
G01X60636Y9313D01*
G01X60542Y9219D01*
G01X60494Y9122D01*
G01X60446Y8978D01*
G01Y8739D01*
G01X60494Y8594D01*
G01X60542Y8500D01*
G01X60636Y8404D01*
G01X60733Y8355D01*
G01X60923D01*
G01X61020Y8404D01*
G01X61116Y8500D01*
G01X61164Y8594D01*
G01X61213Y8739D01*
G01Y8978D01*
G01X61164Y9122D01*
G01X61116Y9219D01*
G01X61020Y9313D01*
G01X60923Y9361D01*
G01X60733D01*
G01X61594Y9361D02*
G01X61594Y8642D01*
G01X61642Y8500D01*
G01X61739Y8404D01*
G01X61881Y8355D01*
G01X61977D01*
G01X62122Y8404D01*
G01X62216Y8500D01*
G01X62264Y8642D01*
G01Y9361D01*
G01X62983Y9361D02*
G01X62983Y8355D01*
G01X62648Y9361D02*
G01X63318Y9361D01*
G04 //text: 3_IN*
G01X24865Y18637D02*
G01X25391Y18637D01*
G01X25104Y18254D01*
G01X25249D01*
G01X25343Y18205D01*
G01X25391Y18160D01*
G01X25439Y18015D01*
G01Y17918D01*
G01X25391Y17776D01*
G01X25295Y17680D01*
G01X25152Y17631D01*
G01X25008D01*
G01X24865Y17680D01*
G01X24817Y17728D01*
G01X24769Y17822D01*
G01X25823Y17296D02*
G01X26684Y17296D01*
G01X27067Y18637D02*
G01X27067Y17631D01*
G01X27448Y18637D02*
G01X27448Y17631D01*
G01X27448Y18637D02*
G01X28119Y17631D01*
G01X28119Y18637D02*
G01X28119Y17631D01*
G04 //text: 3_OUT*
G01X24385Y9488D02*
G01X24911Y9488D01*
G01X24624Y9105D01*
G01X24769D01*
G01X24863Y9056D01*
G01X24911Y9011D01*
G01X24959Y8866D01*
G01Y8769D01*
G01X24911Y8627D01*
G01X24815Y8531D01*
G01X24672Y8482D01*
G01X24528D01*
G01X24385Y8531D01*
G01X24337Y8579D01*
G01X24289Y8673D01*
G01X25343Y8147D02*
G01X26204Y8147D01*
G01X26874Y9488D02*
G01X26778Y9440D01*
G01X26681Y9346D01*
G01X26633Y9249D01*
G01X26587Y9105D01*
G01Y8866D01*
G01X26633Y8721D01*
G01X26681Y8627D01*
G01X26778Y8531D01*
G01X26874Y8482D01*
G01X27065D01*
G01X27161Y8531D01*
G01X27258Y8627D01*
G01X27306Y8721D01*
G01X27352Y8866D01*
G01Y9105D01*
G01X27306Y9249D01*
G01X27258Y9346D01*
G01X27161Y9440D01*
G01X27065Y9488D01*
G01X26874D01*
G01X27736Y9488D02*
G01X27736Y8769D01*
G01X27784Y8627D01*
G01X27880Y8531D01*
G01X28023Y8482D01*
G01X28119D01*
G01X28261Y8531D01*
G01X28358Y8627D01*
G01X28406Y8769D01*
G01Y9488D01*
G01X29125Y9488D02*
G01X29125Y8482D01*
G01X28790Y9488D02*
G01X29460Y9488D01*
G04 Text End*

G04 PolygonModel Start*
G54D11*
G01X48153Y15541D02*
G01X48153Y16341D01*
G01X51153Y16291D02*
G01X50153Y16291D01*
G01X50153Y15491D02*
G01X50153Y16291D01*
G01X51153Y15491D02*
G01X51153Y16291D01*
G01X51153Y15491D02*
G01X51153Y11191D01*
G01X48153Y16341D02*
G01X40153Y16341D01*
G01X38153Y15491D02*
G01X50153Y15491D01*
G01X40153Y15541D02*
G01X40153Y16341D01*
G01X38153Y16291D02*
G01X37153Y16291D01*
G01X38153Y15491D02*
G01X38153Y16291D01*
G01X37153Y15491D02*
G01X37153Y16291D01*
G01X37153Y15491D02*
G01X37153Y11191D01*
G01X51153Y11191D02*
G01X37153Y11191D01*
G01X48152Y6207D02*
G01X48152Y7007D01*
G01X51152Y6957D02*
G01X50152Y6957D01*
G01X50152Y6157D02*
G01X50152Y6957D01*
G01X51152Y6157D02*
G01X51152Y6957D01*
G01X51152Y6157D02*
G01X51152Y1857D01*
G01X48152Y7007D02*
G01X40152Y7007D01*
G01X38152Y6157D02*
G01X50152Y6157D01*
G01X40152Y6207D02*
G01X40152Y7007D01*
G01X38152Y6957D02*
G01X37152Y6957D01*
G01X38152Y6157D02*
G01X38152Y6957D01*
G01X37152Y6157D02*
G01X37152Y6957D01*
G01X37152Y6157D02*
G01X37152Y1857D01*
G01X51152Y1857D02*
G01X37152Y1857D01*
G01X14117Y15541D02*
G01X14117Y16341D01*
G01X17117Y16291D02*
G01X16117Y16291D01*
G01X16117Y15491D02*
G01X16117Y16291D01*
G01X17117Y15491D02*
G01X17117Y16291D01*
G01X17117Y15491D02*
G01X17117Y11191D01*
G01X14117Y16341D02*
G01X6117Y16341D01*
G01X4117Y15491D02*
G01X16117Y15491D01*
G01X6117Y15541D02*
G01X6117Y16341D01*
G01X4117Y16291D02*
G01X3117Y16291D01*
G01X4117Y15491D02*
G01X4117Y16291D01*
G01X3117Y15491D02*
G01X3117Y16291D01*
G01X3117Y15491D02*
G01X3117Y11191D01*
G01X17117Y11191D02*
G01X3117Y11191D01*
G01X14244Y6080D02*
G01X14244Y6880D01*
G01X17244Y6830D02*
G01X16244Y6830D01*
G01X16244Y6030D02*
G01X16244Y6830D01*
G01X17244Y6030D02*
G01X17244Y6830D01*
G01X17244Y6030D02*
G01X17244Y1730D01*
G01X14244Y6880D02*
G01X6244Y6880D01*
G01X4244Y6030D02*
G01X16244Y6030D01*
G01X6244Y6080D02*
G01X6244Y6880D01*
G01X4244Y6830D02*
G01X3244Y6830D01*
G01X4244Y6030D02*
G01X4244Y6830D01*
G01X3244Y6030D02*
G01X3244Y6830D01*
G01X3244Y6030D02*
G01X3244Y1730D01*
G01X17244Y1730D02*
G01X3244Y1730D01*
G01X65959Y16341D02*
G01X65959Y15491D01*
G01X67916Y15491D02*
G01X67916Y16389D01*
G01X67916Y16389D02*
G01X68916Y16389D01*
G01X68916Y11191D02*
G01X68916Y16389D01*
G01X65959Y16341D02*
G01X55872Y16341D01*
G01X53916Y15491D02*
G01X67916Y15491D01*
G01X68916Y11191D02*
G01X52916Y11191D01*
G01X55872Y15491D02*
G01X55872Y16291D01*
G01X53916Y16291D02*
G01X52916Y16291D01*
G01X53916Y15491D02*
G01X53916Y16291D01*
G01X52916Y15491D02*
G01X52916Y16291D01*
G01X52916Y15491D02*
G01X52916Y11191D01*
G01X65959Y7007D02*
G01X65959Y6157D01*
G01X67916Y6157D02*
G01X67916Y7055D01*
G01X67916Y7055D02*
G01X68916Y7055D01*
G01X68916Y1857D02*
G01X68916Y7055D01*
G01X65959Y7007D02*
G01X55872Y7007D01*
G01X53916Y6157D02*
G01X67916Y6157D01*
G01X68916Y1857D02*
G01X52916Y1857D01*
G01X55872Y6157D02*
G01X55872Y6957D01*
G01X53916Y6957D02*
G01X52916Y6957D01*
G01X53916Y6157D02*
G01X53916Y6957D01*
G01X52916Y6157D02*
G01X52916Y6957D01*
G01X52916Y6157D02*
G01X52916Y1857D01*
G01X32304Y16341D02*
G01X32304Y15491D01*
G01X34261Y15491D02*
G01X34261Y16389D01*
G01X34261Y16389D02*
G01X35261Y16389D01*
G01X35261Y11191D02*
G01X35261Y16389D01*
G01X32304Y16341D02*
G01X22217Y16341D01*
G01X20261Y15491D02*
G01X34261Y15491D01*
G01X35261Y11191D02*
G01X19261Y11191D01*
G01X22217Y15491D02*
G01X22217Y16291D01*
G01X20261Y16291D02*
G01X19261Y16291D01*
G01X20261Y15491D02*
G01X20261Y16291D01*
G01X19261Y15491D02*
G01X19261Y16291D01*
G01X19261Y15491D02*
G01X19261Y11191D01*
G01X32304Y6880D02*
G01X32304Y6030D01*
G01X34261Y6030D02*
G01X34261Y6928D01*
G01X34261Y6928D02*
G01X35261Y6928D01*
G01X35261Y1730D02*
G01X35261Y6928D01*
G01X32304Y6880D02*
G01X22217Y6880D01*
G01X20261Y6030D02*
G01X34261Y6030D01*
G01X35261Y1730D02*
G01X19261Y1730D01*
G01X22217Y6030D02*
G01X22217Y6830D01*
G01X20261Y6830D02*
G01X19261Y6830D01*
G01X20261Y6030D02*
G01X20261Y6830D01*
G01X19261Y6030D02*
G01X19261Y6830D01*
G01X19261Y6030D02*
G01X19261Y1730D01*
G04 PolygonModel End*

M02*
